<?xml version="1.0" encoding="utf-8"?>
<!-- Generator: Adobe Illustrator 24.1.2, SVG Export Plug-In . SVG Version: 6.00 Build 0)  -->
<svg version="1.1" id="Camada_1" xmlns="http://www.w3.org/2000/svg" xmlns:xlink="http://www.w3.org/1999/xlink" x="0px" y="0px"
	 viewBox="0 0 406.31 184.9" style="enable-background:new 0 0 406.31 184.9;" xml:space="preserve">
<style type="text/css">
	.st0{fill:#FEFEFE;}
	.st1{fill:#A6A4A5;}
	.st2{fill:#171112;}
	.st3{fill:#201D1E;}
	.st4{fill:#969595;}
	.st5{fill:#120F10;}
	.st6{fill:#E70D12;}
	.st7{fill:#141011;}
	.st8{fill:#151011;}
	.st9{fill:#171213;}
	.st10{fill:#161112;}
	.st11{fill:#181314;}
	.st12{fill:#C6C6C7;}
	.st13{fill:#181213;}
	.st14{fill:#E61015;}
	.st15{fill:#181112;}
	.st16{fill:#1B1314;}
	.st17{fill:#191213;}
	.st18{fill:#1A1213;}
	.st19{fill:#434143;}
	.st20{fill:#1A1314;}
	.st21{fill:#191314;}
	.st22{fill:#1B1415;}
	.st23{fill:#1F1516;}
	.st24{fill:#2A2728;}
	.st25{fill:#1A1415;}
	.st26{fill:#1D1617;}
	.st27{fill:#211617;}
	.st28{fill:#1C1415;}
	.st29{fill:#211516;}
	.st30{fill:#201718;}
	.st31{fill:#737374;}
	.st32{fill:#969596;}
	.st33{fill:#575658;}
	.st34{fill:#BBBBBB;}
	.st35{fill:#D7D6D7;}
	.st36{fill:#351416;}
	.st37{fill:#2F1314;}
	.st38{fill:#A2A1A2;}
	.st39{fill:#3C2526;}
	.st40{fill:#B6B5B6;}
	.st41{fill:#3A1D1F;}
	.st42{fill:#FBFBFB;}
	.st43{fill:#D4ACAD;}
	.st44{fill:#CDABAC;}
	.st45{fill:#564440;}
	.st46{fill:#D9C2C3;}
	.st47{fill:#656465;}
	.st48{fill:#F7BCBD;}
	.st49{fill:#151213;}
	.st50{fill:#FEC82F;}
	.st51{fill:#FDFDFD;}
	.st52{fill:#FECA2A;}
	.st53{fill:#FEED00;}
	.st54{fill:#FEE600;}
	.st55{fill:#FED517;}
	.st56{fill:#FEE005;}
	.st57{fill:#FED811;}
	.st58{fill:#FED11D;}
	.st59{fill:#FECD25;}
	.st60{fill:#FEE700;}
	.st61{fill:#FCFCFC;}
	.st62{fill:#FCFBFB;}
	.st63{fill:#FED21D;}
	.st64{fill:#7D7F81;}
	.st65{fill:#2D2A2C;}
	.st66{fill:#FECE24;}
	.st67{fill:#FED516;}
	.st68{fill:#211E1F;}
	.st69{fill:#211F20;}
	.st70{fill:#181516;}
	.st71{fill:#6B6B6D;}
	.st72{fill:#262425;}
	.st73{fill:#636567;}
	.st74{fill:#727376;}
	.st75{fill:#312F31;}
	.st76{fill:#67686A;}
	.st77{fill:#FED01E;}
	.st78{fill:#706F71;}
	.st79{fill:#403E40;}
	.st80{fill:#1D1B1C;}
	.st81{fill:#7A7A7C;}
	.st82{fill:#616061;}
	.st83{fill:#393739;}
	.st84{fill:#FDCD24;}
	.st85{fill:#454446;}
	.st86{fill:#353335;}
	.st87{fill:#545455;}
	.st88{fill:#777778;}
	.st89{fill:#292728;}
	.st90{fill:#191617;}
	.st91{fill:#646365;}
	.st92{fill:#4B4B4C;}
	.st93{fill:#585758;}
	.st94{fill:#EFE3E4;}
	.st95{fill:#F1E6E6;}
	.st96{fill:#191112;}
	.st97{fill:#F2E5E5;}
	.st98{fill:#F2E5E6;}
	.st99{fill:#F9F5F5;}
	.st100{fill:#1E1314;}
	.st101{fill:#F6EDEE;}
	.st102{fill:#F1E9E9;}
	.st103{fill:#FCE8E9;}
	.st104{fill:#1B1213;}
	.st105{fill:#F7F1F1;}
	.st106{fill:#1F1315;}
	.st107{fill:#ECDDDD;}
	.st108{fill:#201314;}
	.st109{fill:#EDD8D8;}
	.st110{fill:#201213;}
	.st111{fill:#E3CDCD;}
	.st112{fill:#1A1113;}
	.st113{fill:#F2E1E1;}
	.st114{fill:#131011;}
	.st115{fill:#535354;}
	.st116{fill:#292729;}
	.st117{fill:#403F41;}
	.st118{fill:#333133;}
	.st119{fill:#464546;}
	.st120{fill:#444344;}
	.st121{fill:#A6A5A6;}
	.st122{fill:#B2B1B2;}
	.st123{fill:#343334;}
	.st124{fill:#171415;}
	.st125{fill:#969697;}
	.st126{fill:#7E7E80;}
	.st127{fill:#FECD24;}
	.st128{fill:#FECD23;}
	.st129{fill:#FEE500;}
	.st130{fill:#FEE400;}
	.st131{fill:#FEDC0A;}
	.st132{fill:#FEE104;}
	.st133{fill:#FEDF07;}
	.st134{fill:#FDD710;}
	.st135{fill:#FED60B;}
	.st136{fill:#FDE004;}
	.st137{fill:#FDDD08;}
	.st138{fill:#FDD80F;}
	.st139{fill:#5A595A;}
	.st140{fill:#4D4C4E;}
	.st141{fill:#4C4B4C;}
	.st142{fill:#4E4E4F;}
	.st143{fill:#3F3E40;}
	.st144{fill:#39383A;}
	.st145{fill:#5E5D5F;}
	.st146{fill:#FAFAFA;}
	.st147{fill:#FED515;}
	.st148{fill:#FED419;}
	.st149{fill:#FEDA0B;}
	.st150{fill:#FEE003;}
	.st151{fill:#FED713;}
	.st152{fill:#FED01D;}
	.st153{fill:#FED217;}
	.st154{fill:#FDD10F;}
	.st155{fill:#FEE103;}
	.st156{fill:#FED90B;}
	.st157{fill:#FEDA0A;}
	.st158{fill:#FEDC07;}
	.st159{fill:#FEDB06;}
	.st160{fill:#FED710;}
	.st161{fill:#FED612;}
	.st162{fill:#FED80A;}
	.st163{fill:#FEE004;}
	.st164{fill:#FEDD07;}
	.st165{fill:#302E30;}
</style>
<g>
	<path class="st0" d="M401.65,131.51c0,3.64,0,7.27,0,10.91c-0.68,0.21-0.95-0.29-1.14-0.74c-0.64-1.59-1.76-2.79-3.01-3.9
		c-0.34-0.55-0.86-0.76-1.47-0.83c-0.17-0.03-0.34-0.07-0.51-0.11c-1.16-0.19-2.31-0.33-3.43,0.14c-0.92,0.6-2.04,0.81-2.87,1.59
		c-2.08,1.96-3.15,4.24-2.42,7.14c0.74,2.91,2.57,4.7,5.51,5.35c3.27,0.55,5.77-0.61,7.59-3.47c0.4-0.63,0.52-1.76,1.76-1.27
		c0,11.74-0.03,23.49,0.04,35.23c0.01,1.41-0.24,1.82-1.76,1.82c-73.68-0.05-147.37-0.04-221.06-0.04c0.1-1.28,1.24-1.11,2.01-1.38
		c4.1-1.47,7.53-3.72,9.45-7.8c0.55-1.17,0.82-2.34-0.26-3.39c-0.53-0.59-1.01-1.24-1.8-1.53c-0.77-0.45-1.92,0.13-2.48-0.91
		c0.27-0.83,1.05-0.88,1.71-1.08c3.57-1.1,6.29-3.27,8.14-6.49c1.03-1.78,2.7-2.96,3.93-4.53c0.61-0.78,1.25-1.62-0.22-2.22
		c-0.32-0.83-0.81-0.87-1.5-0.39c-1.83,1.28-3.81,1.32-5.95,0.87c-4.65-0.96-10.09,1.5-12.6,5.52c-0.82,1.31-1.17,2.73-1.11,4.25
		c0.06,1.28-0.38,2.27-1.51,2.93c-1.35,0.8-2.17,2.23-3.57,2.98c-1.26-0.08-1.06-0.91-0.91-1.73c0.52-1.97,1.62-3.67,2.58-5.44
		c0.66-1.2,1.23-2.43,1.64-3.74c0.46-1.44,0.26-2.69-0.99-3.66c-1.5-1.65-3.32-1.99-5.46-1.55c-2.85,0.58-5.44,1.64-7.59,3.6
		c-0.96,0.88-1.95,1.87-0.65,3.26c0.34,0.44,0.66,0.89,0.84,1.42c-0.02,0.2-0.06,0.44-0.22,0.51c-2.62,1.09-4.72,2.96-6.92,4.67
		c-0.32-0.05-0.51-0.23-0.59-0.54c0.4-2.27,1.84-4.07,2.73-6.12c0.43-1,0.98-1.96,1.16-3.05c0.15-0.87,0.02-1.67-0.73-2.26
		c-1.55-1.87-3.38-1.82-5.42-0.87c-1.1,0.51-2,1.47-3.31,1.54c-0.73-0.24-1.24-0.79-1.84-1.22c-0.94-1.08-2.08-1.06-3.38-0.79
		c-1.35,0.28-2.41,1.3-3.82,1.34c-0.55-0.1-1.11-0.18-1.59-0.51c-0.33-0.49-0.66-0.94-1.39-0.81c-2.36,0.44-4.71,0.92-6.77,2.28
		c-0.88,0.58-1.1,1.37-1.32,2.4c-1.05,4.83-3.19,9.1-7.05,12.36c-0.14,0.12-0.36,0.13-0.56,0.13c-1.39-0.56-1.63-1.57-1.14-2.88
		c2.26-4.44,4.32-8.98,6.8-13.3c1.14-2,2.42-3.78,4.43-5.03c1.57-0.98,1.53-1.62,0.14-2.99c-0.2-0.17-0.36-0.39-0.58-0.53
		c-2.11-1.35-8.84-0.73-10.65,0.96c-0.68,0.64-0.95,1.41-0.74,2.29c0.36,1.48,0.03,2.83-0.59,4.15c-2.27,4.82-4.75,9.52-7.54,14.07
		c-0.66,1.08-1.66,1.8-2.62,2.58c-1.47,1.18-1.47,1.65-0.15,3.13c0.99,1.04,2.29,1.13,3.6,1.18c2.85,0.1,5.51-0.69,8.12-1.75
		c0.55-0.04,1.01,0.15,1.41,0.51c2.54,2.15,5.26,1.19,7.96,0.43c0.55-0.16,0.99-0.58,1.55-0.74c0.44-0.06,0.78,0.13,1.09,0.4
		c2.58,1.93,5.28,1.27,7.97,0.31c0.54-0.19,0.98-0.6,1.51-0.82c0.51-0.15,0.98-0.08,1.41,0.25c2,1.82,5.26,1.92,7.83,0.25
		c0.49-0.32,0.9-0.73,1.33-1.11c0.21-0.19,0.44-0.35,0.71-0.45c0.19-0.04,0.37-0.03,0.55,0.03c0.67,0.49,1.22,1.1,1.81,1.67
		c1.12,1.43,2.59,1.13,4.05,0.8c1.07-0.25,1.97-0.94,3.05-1.16c0.5-0.06,0.96,0.05,1.35,0.38c0.82,1.08,1.87,1.15,3.08,0.78
		c1.31-0.4,2.4-1.17,3.48-1.97c0.55-0.4,1.04-0.99,1.84-0.87c0.93,0.89,0.71,1.69-0.2,2.42c-0.4,0.32-0.85,0.58-1.23,0.94
		c-2,1.86-1.99,3.68,0.04,5.76c0.55,0.91,2.19,0.79,2.14,2.27c-56.62,0-113.25-0.01-169.87,0.03c-1.38,0-1.84-0.18-1.84-1.74
		c0.05-59.53,0.05-119.06,0-178.6c0-1.43,0.32-1.68,1.7-1.68c132.23,0.04,264.46,0.04,396.69,0c1.34,0,1.63,0.27,1.6,1.6
		c-0.11,4.28-0.04,8.57-0.04,12.85c-0.17,0.16-0.36,0.3-0.54,0.44c-6.41,2.75-13.1,4.64-19.88,6.2
		c-10.59,2.43-21.34,3.77-32.19,4.54c-9.67,0.68-19.34,0.94-29.01,0.64c-10.11-0.32-20.22-0.93-30.32-1.74
		c-18.08-1.44-36.02-4.09-54.05-5.9c-15.35-1.54-30.76-1.68-46.14-1.16c-24.72,0.84-49.18,4.15-73.39,9.22
		c-7.06,1.48-14.09,3.08-21.07,4.92c-2.77,0.73-3.14,0.5-3.38-2.4c-0.1-1.26-0.56-1.83-1.83-1.48c-1.14,0.31-1.86-0.11-2.33-1.15
		c-0.77-1.7-2.22-2.67-3.81-3.47c-4.71-2.37-9.8-3.38-14.96-4.17c-1.86-0.28-3.74-0.43-5.6-0.75c-0.7-0.12-1.44-0.13-1.93-0.78
		c-0.66-1.9-0.22-3.85-0.32-5.78c-0.06-1.16-0.01-2.33-0.01-3.5c0-3.44-0.74-4.46-4.01-5.41c-1.49-0.43-3.01-0.79-4.56-0.99
		C52.11,3.07,51.9,3.04,51.69,3c-0.91-0.31-1.84-0.36-2.79-0.31c-0.43,0.04-0.86,0-1.29,0.01c-0.99,0.03-1.98,0.03-2.97,0.01
		c-1.75,0.06-3.51-0.16-5.25,0.16c-0.41,0.11-0.84,0.16-1.26,0.18c-0.71,0.01-1.43,0-2.11,0.24c-0.71,0.15-1.44,0.2-2.11,0.5
		c-0.67,0.24-1.35,0.45-2,0.73c-1.59,0.66-2.42,1.75-2.36,3.57c0.09,2.77,0.03,5.54,0.02,8.32c0,0.77,0.08,1.55-0.28,2.28
		c-0.56,0.81-1.46,0.78-2.28,0.89c-4.77,0.63-9.53,1.33-14.18,2.63c-2.58,0.72-5.09,1.6-7.31,3.14c-2.21,1.54-2.65,2.71-1.98,5.31
		c0.26,1.02,0.32,2.05,0.32,3.09c0,39.41,0,78.81,0,118.22c0,1.17-0.03,2.33-0.43,3.46c-0.61,1.72,0.05,3.02,1.38,4.11
		c2.2,1.81,4.75,2.95,7.4,3.84c6.74,2.27,13.71,3.46,20.78,4.21c3.23,0.34,6.48,0.27,9.72,0.66c3.89,0.47,7.79-0.16,11.67-0.4
		c7.86-0.49,15.63-1.69,23.16-4.16c2.67-0.88,5.24-1.97,7.52-3.63c1.53-1.11,2.67-2.44,2.53-4.53c-0.09-1.33,0.76-2.2,1.88-2.72
		c1.26-0.59,2.15-1.33,2.31-2.83c0.14-1.34,1.34-1.63,2.38-1.99c6.33-2.18,12.74-4.13,19.18-5.96c16.28-4.64,32.79-8.21,49.57-10.45
		c8.24-1.1,16.52-1.83,24.83-2.29c6.83-0.38,13.64-0.29,20.46-0.27c10.08,0.03,20.09,1.16,30.08,2.44
		c11.79,1.52,23.61,2.81,35.46,3.83c9.64,0.83,19.28,1.55,28.95,1.94c10.26,0.42,20.51,0.95,30.77,0.68
		c21.84-0.59,43.6-2.1,65.06-6.56c0.82-0.17,1.65-0.41,2.5-0.2C401.26,131.23,401.46,131.35,401.65,131.51z"/>
	<path class="st1" d="M401.24,15.8c0.13,0,0.27-0.01,0.4-0.01c0,38.57,0,77.15,0,115.72c-0.16-0.03-0.32-0.05-0.48-0.08
		c-0.65-0.77-0.54-1.71-0.54-2.61c-0.01-36.75-0.01-73.49,0-110.24C400.63,17.62,400.54,16.62,401.24,15.8z"/>
	<path class="st2" d="M173.4,183.33c-0.43-1.16-2.13-0.8-2.47-2.06c0.54-0.38,1.12-0.21,1.69-0.15c5.93,0.66,10.82-1.28,14.8-5.71
		c1.35-1.5,1.63-3.5,2.72-5.11c1.77,0.89,1.43,2.35,0.82,3.67c-2.09,4.55-5.82,7.15-10.5,8.58c-0.56,0.17-1.36-0.08-1.61,0.77
		c-0.65,0-1.3,0-1.95,0c-0.52-0.31-1.04-0.31-1.56,0C174.7,183.33,174.05,183.33,173.4,183.33z"/>
	<path class="st3" d="M395.79,136.57l0.1,0.1l0.14-0.04c0.61,0.15,1.23,0.29,1.7,0.76c1.91,1.21,2.71,3.28,3.91,5.03
		c0,1.3,0,2.6,0,3.9c-1.03-0.05-0.89,0.92-1.18,1.44c-1.75,3.03-4.89,4.46-8.28,3.69c0.05-0.08,0.11-0.15,0.16-0.23
		c0.72-0.49,1.63-0.15,2.36-0.56c0.23-0.14,0.45-0.29,0.67-0.45c0.79-0.56,1.66-0.99,2.38-1.66c3.45-3.19,2.59-8.25-1.73-10.13
		c-0.89-0.39-1.89-0.46-2.72-0.98c-0.23-0.33-0.59-0.65-0.07-1.04C394.08,136.45,394.96,136.2,395.79,136.57z"/>
	<path class="st4" d="M175.35,183.33c0.52-0.6,1.04-0.6,1.56,0C176.4,183.33,175.87,183.33,175.35,183.33z"/>
	<path class="st5" d="M401.24,15.8c0,38.02,0.01,76.05,0.01,114.07c0,0.52-0.05,1.04-0.08,1.55c-26.01,5.46-52.36,7.23-78.88,6.99
		c-25.05-0.23-49.99-2.18-74.84-5.27c-17.42-2.17-34.84-4.13-52.45-3.6c-27.76,0.83-54.89,5.5-81.56,13.08
		c-6.56,1.86-13.06,3.92-19.54,6.05c-1.22,0.4-1.99,0.86-1.68,2.26c0.25,1.17-0.46,1.54-1.41,1.89c-1.7,0.62-3.2,1.36-2.6,3.76
		c0.27,1.08-0.6,2.06-1.4,2.87c-1.94,1.92-4.34,3.06-6.84,4c-7.79,2.93-15.93,4.22-24.18,4.89c-13.65,1.11-27.14,0.23-40.4-3.34
		c-3.65-0.98-7.19-2.28-10.32-4.47c-2.69-1.88-2.95-2.9-1.81-5.98c0.19-0.52,0.16-1.15,0.16-1.72c-0.06-40.05-0.13-80.1-0.21-120.16
		c0-0.64,0.01-1.28-0.23-1.91c-0.88-2.39-0.55-3.67,1.4-5.3c2.08-1.75,4.58-2.67,7.13-3.47c5.11-1.61,10.39-2.33,15.68-2.98
		c0.63-0.08,1.33,0.08,1.82-0.49c0.52-2.54,0.11-5.11,0.23-7.66c0.05-1.09,0.01-2.19,0.01-3.29c0-0.78,0.37-0.9,0.97-0.54
		c0.78,0.46,1.55,0.93,2.4,1.24c0.47,0.18,0.94,0.38,1.44,0.48c0.57,0.16,1.14,0.31,1.72,0.45c0.52,0.16,1.01,0.36,1.41,0.74
		c0.25,0.26,0.41,0.57,0.5,0.92c0.35,6.35,0.14,12.7,0.11,19.05c0,1.08-0.47,1.88-1.7,1.97c-1.16,0.11-2.29-0.05-3.39-0.46
		c-1.06-0.47-2.25-0.63-3.18-1.41c-1.06-0.92-1.02-2.17-1.01-3.41c0-0.84,0.01-1.69-0.02-2.53c-0.03-0.72-0.2-1.31-1.12-1.18
		c-1.24,0.03-2.47,0.14-3.69,0.39c-0.93,0.06-1.87,0.02-2.78,0.33c-2.25,0.17-4.36,0.98-6.54,1.46c-1.04,0.18-2.05,0.51-3.06,0.81
		c-1.25,0.18-2.33,0.79-3.4,1.39c-2.04,1.14-2.05,2-0.12,3.37c0.22,0.15,0.47,0.22,0.7,0.33c0.51,0.2,1.03,0.35,1.55,0.52
		c1.14,0.39,2.22,0.95,3.45,1.06c0.93,0.23,1.82,0.6,2.78,0.7c0.68,0.13,1.34,0.35,2.04,0.39c1.52,0.24,2.99,0.76,4.54,0.76
		c1.04,0.18,2.07,0.38,3.13,0.39c1.07,0.18,2.14,0.39,3.23,0.33c1.93,0.24,3.87,0.47,5.82,0.39c3.57,0.66,7.17,0.32,10.76,0.38
		c3.09-0.09,6.19,0.27,9.27-0.22c1.81-0.35,3.67,0.11,5.46-0.36c1.17-0.32,2.41,0,3.58-0.39c1.03-0.26,2.13-0.03,3.15-0.39
		c1.53-0.16,3.06-0.35,4.56-0.73c0.66-0.18,1.36-0.16,2.01-0.38c3.02-0.71,6.07-1.31,8.83-2.84c2.2-1.21,2.23-2.05,0.12-3.35
		c-1.06-0.65-2.25-0.97-3.41-1.36c-0.86-0.34-1.75-0.59-2.66-0.78c-0.54-0.17-1.09-0.27-1.64-0.4c-0.55-0.18-1.13-0.25-1.69-0.39
		c-1.37-0.34-2.76-0.56-4.16-0.73c-0.9-0.32-1.88-0.16-2.79-0.38c-0.26-0.04,0.07-0.01-0.19-0.03c-5.1-0.52-4.14-0.67-4.25,3.41
		c-0.07,2.63-0.52,3.28-2.45,3.57c-1.06-0.45-1.03-1.42-1.04-2.31c-0.05-5.76-0.04-11.51-0.01-17.27c0.01-1,0.24-1.92,0.89-2.71
		c0.41-0.49,0.86-1.18,1.53-0.92c0.63,0.24,0.29,1.04,0.31,1.58c0.14,3.34-0.24,6.7,0.2,10.04c3.18,0.91,6.5,0.9,9.73,1.53
		c4.21,0.82,8.41,1.67,12.31,3.56c2.07,1,4.06,2.15,4.8,4.55c0.37,1.18,1.04,0.37,1.52,0.25c2.31-0.58,2.31-0.6,2.31,1.76
		c0,2.97,0,2.96,2.85,2.23c39.54-10.13,79.66-15.44,120.55-14.24c13.85,0.41,27.6,1.94,41.34,3.65c29.04,3.6,58.15,6.29,87.47,4.85
		c19.23-0.94,38.13-3.72,56.2-10.75C400.72,15.82,400.99,15.83,401.24,15.8z"/>
	<path class="st6" d="M210.74,170.44c3.2-2.76,5.54-6.58,5.94-10.35c0.47-4.36,3.19-4.68,5.93-5.7c1.08-0.4,2.26-0.51,3.39-0.78
		c1.22-0.29,1.37,0.25,0.98,1.23c-0.1,2.21,1.19-0.09,1.59,0.49c1.48-0.71,2.87-1.65,4.58-1.81c1.31-0.13,2.42,0.09,3.01,1.43
		c0.44,0.37,0.42,1.24,1.26,1.19c1.69-0.91,3.18-2.18,5.16-2.53c1.6-0.28,2.95-0.07,3.8,1.49c0.87,1.37,0.2,2.62-0.33,3.86
		c-1.18,2.73-2.83,5.22-4.12,7.9c-0.56,1.17-1.13,2.34-1.27,3.64c-0.21,1.91-1.35,3.07-3.08,3.6c-1.93,0.59-3.92,0.8-5.85-0.13
		c-0.33-0.17-0.65-0.34-0.98-0.51c-1.04-0.42-0.73-1.19-0.45-1.91c0.3-0.78,0.75-1.48,1.4-2.03c2.47-2.35,3.53-5.5,4.78-8.52
		c-0.79-0.67-1.14-0.73-1.75,0.32c-1.62,2.77-3.51,5.44-4.23,8.66c-0.65,2.95-2.35,4.46-5.4,4.48c-1.45,0.01-2.98,0.42-4.36-0.45
		c-0.29-0.11-0.57-0.23-0.86-0.34c-1.04-0.46-0.71-1.2-0.36-1.91c0.37-0.76,1.01-1.31,1.62-1.86c2.46-2.38,3.61-5.51,4.83-8.59
		c-0.01-0.43,0.16-1.09-0.65-0.7c-0.65,0.32-1.14,0.89-1.46,1.53c-1.34,2.65-3,5.15-3.84,8.05c-0.86,2.97-2.56,4.28-5.67,4.29
		c-1.4,0-2.86,0.38-4.18-0.46c-0.93-0.32-1.46-0.9-1.24-1.95c0.01-0.09,0.02-0.17,0.03-0.26
		C209.28,170.95,210.09,170.8,210.74,170.44z"/>
	<path class="st6" d="M143.46,173.95c-0.36-0.17-0.72-0.35-1.08-0.52c-1.35-1.32-0.11-2.19,0.55-3.16c2.57-2.49,3.82-5.74,5.15-8.94
		c0.01-0.44,0.17-1.03-0.62-0.79c-0.51,0.15-0.9,0.56-1.16,1c-1.61,2.78-3.48,5.45-4.01,8.72c-0.27,1.67-1.13,2.92-2.65,3.56
		c-2.33,0.98-4.73,1.02-7.13,0.18c-0.29-0.11-0.57-0.22-0.86-0.33c-1.21-0.48-0.5-1.27-0.32-1.97c0.33-0.71,0.76-1.35,1.38-1.85
		c2.73-2.23,3.84-5.43,5.08-8.54c0.14-0.64,0.26-1.29-0.76-0.87c-0.62,0.26-0.97,0.82-1.29,1.38c-1.75,2.99-3.48,5.99-4.29,9.41
		c-0.54,1.72-1.81,2.69-3.48,3c-2.01,0.37-4.06,0.74-6.03-0.25c-0.4-0.21-0.8-0.42-1.19-0.63c-0.6-1-0.39-1.73,0.72-2.17
		c1.43-0.83,2.58-1.96,3.37-3.41c1.17-2.16,2.31-4.34,3.41-6.53c0.29-0.57,0.71-1.33,0.53-1.82c-0.8-2.28,0.82-3.07,2.29-3.83
		c2.08-1.08,4.37-1.57,6.67-1.99c1.26-0.22,1.32,0.31,1.01,1.24c-0.04,2.11,1.12,0.08,1.58,0.46c1.52-0.68,2.91-1.69,4.65-1.8
		c1.22-0.08,2.35,0.01,2.85,1.39c0.29,0.59,0.43,1.36,1.38,1.2c1.59-0.84,2.99-2.02,4.8-2.44c1.72-0.4,3.21-0.22,4.18,1.48
		c0.85,1.33,0.1,2.53-0.42,3.66c-1.17,2.53-2.43,5.02-3.72,7.49c-0.76,1.44-1.51,2.86-1.64,4.53c-0.08,1.04-0.76,1.79-1.57,2.36
		C148.52,174.84,146.04,174.94,143.46,173.95z"/>
	<path class="st6" d="M331.11,174.31c-0.46-0.1-0.91-0.2-1.37-0.3c-0.22-0.94-0.62-1.28-1.56-0.66c-0.8,0.53-1.72,0.85-2.63,1.19
		c-1.03,0.39-1.88,0.06-2.71-0.48c-1.71-0.95-2.06-2.56-2.02-4.31c0.11-4.04,2.06-7.29,4.6-10.23c2.09-2.42,4.49-4.49,7.54-5.64
		c1.55-0.58,3.14-0.91,4.67,0.08c0.57,0.37,1.14,0.83,1.6-0.03c0.45-0.84,1.68-1.74,0.65-2.71c-1.2-1.13-0.56-1.89,0.25-2.54
		c2.6-2.08,5.78-2.46,8.94-2.82c0.91-0.1,0.75,0.66,0.74,1.23c-0.12,2.23-1.49,3.96-2.5,5.79c-2.44,4.42-4.48,9.04-7.01,13.41
		c-0.56,0.97-0.81,2.02-0.7,3.17c0.15,1.44-0.49,2.53-1.71,3.24C335.82,173.93,333.62,174.76,331.11,174.31z"/>
	<path class="st6" d="M190.15,170.3c-0.1,2.94-1.75,5.08-3.79,6.93c-4.42,3.99-9.56,5.42-15.42,4.03c-2.56-2.07-2.34-5,0.71-6.83
		c1.22-0.74,1.44-1.44,0.94-2.61c-0.47-0.72-0.16-1.27,0.38-1.77c1.07-1.59,2.7-2.55,4.12-3.77c1.48-1.27,0.17-3.38,0.98-5.1
		c2.34-4.99,8.81-8.46,14.17-7.16c2.13,0.51,3.94,0.12,5.73-1c0.44-0.28,0.93-0.93,1.51-0.49c0.46,0.34,0.08,0.97,0.08,1.47
		c0.41,0.88-0.34,1.32-0.8,1.76c-1.68,1.62-3.06,3.44-4.34,5.41c-2.66,4.11-6.76,5.8-11.47,6.27c-0.58,0.06-1.17-0.03-1.73,0.16
		c-0.31,0.1-0.65,0.27-0.6,0.65c0.06,0.51,0.54,0.45,0.91,0.51c1.28,0.18,2.48-0.5,3.75-0.32c1.07,0.48,2.23,0.14,3.32,0.35
		C189.29,169.12,189.86,169.56,190.15,170.3z"/>
	<path class="st6" d="M289.28,174.26c-1.84-0.58-1.31-2.03-1.11-3.24c0.94-5.76,1.97-11.51,2.89-17.27c0.21-1.31,0.92-2.8-0.77-3.84
		c-0.53-0.33-0.14-0.96,0.1-1.41c0.73-1.35,1.98-2.04,3.37-2.48c2.59-0.82,5.26-0.78,7.92-0.41c0.9,0.12,1.81,0.4,2.07,1.49
		c0.26,0.98-0.32,1.67-0.99,2.12c-1.73,1.16-2.26,2.85-2.48,4.76c-0.12,1.02-0.34,2.02-0.49,3.03c-0.11,0.75,0.19,1.08,0.9,1.13
		c2.43-2.16,4.46-4.68,6.51-7.17c0.42-0.51,0.68-1.09,0.26-1.78c-0.62-1.01,0-1.73,0.68-2.36c1.5-1.38,6.76-2.02,8.58-1.09
		c0.45,0.23,0.67,0.59,0.71,1.07c0.37,1.57-0.68,2.43-1.84,2.74c-2.53,0.68-4.02,2.57-5.61,4.33c-4.52,5.01-9.01,10.04-13.58,15
		c-1.23,1.34-2.23,2.88-3.67,4.02C291.73,173.7,290.78,174.7,289.28,174.26z"/>
	<path class="st6" d="M362.09,173.62c-2.28-1.54-2.16-3.74-1.62-6.03c0.18-0.75,0.45-1.47,0.68-2.2c0.11-1.82,1.29-3.07,2.34-4.38
		c0.86-0.01,1.11-0.79,1.57-1.28c3-3.18,6.51-5.49,10.89-6.26c2.95-0.51,4.61,0.27,6.18,2.77c1.28,2.76,0.17,5.3-1.08,7.6
		c-3.18,5.84-8.11,9.5-14.67,10.89c-0.71,0.15-1.42,0.15-2.12-0.02C363.51,174.4,362.72,174.16,362.09,173.62z"/>
	<path class="st6" d="M108.59,174c-1.54-0.74-2-2.07-0.6-2.99c4.4-2.93,5.8-7.8,8.23-12c1.07-1.84,1.91-3.82,2.84-5.73
		c0.56-1.14,0.86-2.23,0.19-3.5c-0.59-1.12,0.1-2.07,1.02-2.63c3.34-2.05,6.99-2.08,10.7-1.38c0.67,0.13,1.1,0.65,1.32,1.31
		c0.35,1.07-0.21,1.89-1.01,2.3c-2.93,1.53-4.2,4.36-5.64,7.02c-1.85,3.43-3.5,6.96-5.28,10.43c-0.4,0.78-0.64,1.56-0.28,2.42
		c0.4,2.45-0.18,3.68-2.45,4.5C114.67,174.79,111.63,175,108.59,174z"/>
	<path class="st6" d="M164.2,174.32c-0.38-0.17-0.75-0.34-1.13-0.51c-0.93-0.71-1.78-0.46-2.78,0c-1.53,0.7-3.15,1.59-4.85,0.3
		c-0.75-0.35-1.26-0.93-1.56-1.68c-0.43-0.49-0.47-1.06-0.35-1.66c0.1-0.45,0.25-0.89,0.34-1.35c0.04-0.18,0.1-0.34,0.18-0.51
		c0.39-0.58,0.69-1.24,1.39-1.53c1.86-2.4,4.33-3.91,7.16-4.9c0.17-0.66,0.74-0.57,1.22-0.68c2.99-0.02,3.11-0.11,4.41-3.36
		c0.03-1.57-0.83-0.75-1.29-0.41c-1.12,0.83-1.99,1.99-3.23,2.69c-0.65,0.36-1.26,0.96-2.1,0.45c-1.22-0.05-1.36-0.78-1.07-1.73
		c0.32-1.02,1.01-1.79,1.82-2.45c2.59-2.08,5.57-3.24,8.85-3.59c1.82-0.2,3.47,0.28,4.51,1.99c0.91,1.28,0.48,2.6,0.04,3.88
		c-0.58,1.65-1.54,3.11-2.36,4.65c-0.74,1.4-1.7,2.77-1.48,4.5c0.1,0.31,0.17,0.62,0.13,0.95
		C171.72,171.99,166.85,175.07,164.2,174.32z"/>
	<path class="st6" d="M351.27,168.55c1.72,0.56,3.1-0.35,4.5-1.1c1.25-0.67,1.83-0.47,1.54,1.05c0.35,0.92-0.31,1.45-0.83,1.99
		c-2.32,2.42-5.21,3.74-8.48,4.29c-1.21,0.21-2.29-0.19-3.28-0.85c-2.01-1.2-2.41-3.05-2.2-5.2c0.66-6.86,8.39-13.84,13.58-15.09
		c2.54-0.61,4.77-0.4,6.43,1.88c1.95,4.47-1.28,9.58-6.07,9.61c-1.1,0.01-2.21-0.01-3.31,0.01
		C350.46,165.2,349.99,166.04,351.27,168.55z"/>
	<path class="st6" d="M255.81,173.92c-2.27-1.38-2.44-3.51-2.05-5.8c1.06-6.25,7.82-13.24,14.02-14.57
		c2.37-0.51,4.38-0.12,5.82,2.01c1.94,4.58-1.2,9.57-6.05,9.61c-1.04,0.01-2.08-0.01-3.12,0.01c-2.69,0.03-3.2,0.88-2.04,3.37
		c1.73,0.63,3.11-0.33,4.5-1.08c1.3-0.7,1.76-0.35,1.66,1.04c0.24,1.24-0.67,1.9-1.41,2.55c-2.3,2.02-5.02,3.2-8.03,3.72
		C257.88,174.99,256.79,174.67,255.81,173.92z"/>
	<path class="st6" d="M202.8,168.53c1.73,0.67,3.11-0.31,4.5-1.05c1.22-0.65,1.8-0.49,1.64,1c0.32,0.9-0.25,1.5-0.77,2.05
		c-2.5,2.58-5.67,3.78-9.14,4.29c-1.02,0.15-1.87-0.41-2.73-0.85c-2.16-1.31-2.49-3.33-2.15-5.59c0.94-6.34,7.86-13.56,14.2-14.84
		c2.29-0.46,4.26-0.1,5.62,2c2.05,4.66-1.1,9.6-6.15,9.63c-1.1,0.01-2.2-0.02-3.3,0.01C202.07,165.24,201.54,166.31,202.8,168.53z"
		/>
	<path class="st6" d="M307.07,173.96c-1.63-1.1-1.87-2.06-0.32-3.1c3.19-2.13,4.44-5.5,6.11-8.62c0.59-1.09,1.27-2.17,0.35-3.6
		c-0.56-0.87,0.35-1.7,1.11-2.22c2.65-1.81,5.72-2.39,8.82-2.86c1.13-0.17,0.84,0.66,0.81,1.28c0.16,0.77-0.22,1.4-0.58,2.01
		c-1.71,2.84-3.06,5.87-4.57,8.81c-0.8,1.55-1.57,3.06-1.33,4.97c0.17,1.4-0.86,2.45-2.1,3.02
		C312.67,174.89,309.87,174.85,307.07,173.96z"/>
	<path class="st7" d="M289.28,174.26c1.6-0.31,2.8-1.26,3.86-2.43c5.98-6.62,11.97-13.24,17.96-19.85c1.13-1.25,2.23-2.45,4.08-2.73
		c1.25-0.18,1.89-1.26,2.26-2.43c0.71,0.23,1.42,0.49,1.19,1.44c-0.25,1.08-0.92,2.08-1.96,2.21c-2.26,0.28-3.47,1.88-4.8,3.35
		c-5.65,6.23-11.26,12.5-16.91,18.74c-0.95,1.05-1.87,2.18-3.27,2.68C290.62,175.6,289.6,175.75,289.28,174.26z"/>
	<path class="st8" d="M331.11,174.31c1.72-0.57,3.58-0.56,5.27-1.29c2.28-1,2.77-1.77,2.57-4.24c-0.07-0.81,0.32-1.51,0.68-2.2
		c3.39-6.5,6.8-13,10.19-19.5c1.94-0.16,1.44,0.92,0.92,1.9c-2.6,4.96-5.23,9.9-7.83,14.86c-0.78,1.48-1.47,3-2.2,4.51
		c-0.29,0.58-0.65,1.19-0.4,1.85c0.73,1.94-0.45,2.92-1.87,3.72c-1.97,1.11-4.18,1.31-6.37,1.54
		C331.19,175.54,330.87,175.17,331.11,174.31z"/>
	<path class="st9" d="M307.07,173.96c1.81,0.01,3.62,0.07,5.42,0.03c1.25-0.03,2.41-0.47,3.41-1.25c0.69-0.53,1.49-1.36,1.21-2.07
		c-0.87-2.19,0.45-3.74,1.3-5.4c1.79-3.5,3.44-7.08,5.54-10.42c2.06-0.21,1.32,0.93,0.85,1.85c-1.89,3.68-3.85,7.33-5.72,11.02
		c-0.63,1.24-1.37,2.44-0.67,4.02c0.4,0.9-0.51,1.66-1.2,2.26c-1.77,1.54-7.48,2.05-9.51,0.89
		C307.34,174.67,307.14,174.36,307.07,173.96z"/>
	<path class="st10" d="M364.12,174.26c9.21,0.24,17.77-8.33,18.01-18.02c1.22,0.59,1.24,1.75,1.25,2.83
		c0.06,4.01-1.83,7.21-4.43,10.03c-2.82,3.06-6.23,5.25-10.33,6.19c-1.77,0.4-3.58,0.59-5.25-0.48
		C363.27,174.12,363.69,174.19,364.12,174.26z"/>
	<path class="st11" d="M181.19,169.27c-0.76,0.02-1.58-0.03-1.42-1.06c0.15-0.94,0.89-1.4,1.86-1.34c2.8,0.19,5.39-0.49,7.84-1.83
		c1.61-0.88,3.22-1.89,4.07-3.52c1.53-2.92,4.12-4.94,6.02-7.53c0.41-0.13,0.83-0.57,1.26-0.23c0.44,0.36,0.12,0.84-0.03,1.25
		c-0.14,0.36-0.26,0.78-0.52,1.03c-2.55,2.4-4.26,5.47-6.53,8.08c-2.03,2.32-4.88,3.32-7.82,4.01c-1.15,0.73-2.5,0.23-3.7,0.62
		C181.84,168.9,181.51,169.08,181.19,169.27z"/>
	<path class="st10" d="M119.46,168.94c-0.58-0.83,0.06-1.5,0.37-2.15c2.23-4.68,4.59-9.3,7.14-13.82c0.84-1.49,1.85-2.81,3.49-3.52
		c1.04-0.45,1.49-1.39,1.82-2.4c1.55,1.08,1.58,2.6-0.26,3.5c-2.35,1.16-3.51,3.17-4.63,5.28c-2.24,4.21-4.42,8.46-6.62,12.69
		C120.47,169.1,120.2,169.76,119.46,168.94z"/>
	<path class="st9" d="M154.29,169.08l-0.03,0.09c-0.24,0.36-0.37,0.76-0.52,1.16c-0.07,0.16-0.13,0.32-0.18,0.48
		c-0.09,0.68-0.02,1.39-0.42,2.01c-1.29,2.59-6.01,3.15-8.51,2.29c-0.55-0.19-1.06-0.48-1.18-1.14c2.06,0.13,4.15,0.4,6.12-0.52
		c1.42-0.66,2.5-1.6,2.39-3.39c-0.06-1,0.42-1.87,0.87-2.73c1.35-2.58,2.67-5.17,4.02-7.74c0.73-1.39,1.21-2.85,1.31-4.43
		c1.71,0.9,1.31,2.33,0.85,3.68c-0.98,2.87-2.76,5.37-3.96,8.14C154.85,167.69,154.59,168.39,154.29,169.08z"/>
	<path class="st9" d="M231.74,173.96c1.87,0.1,3.76,0.35,5.59-0.31c1.7-0.61,2.96-1.55,2.88-3.63c-0.04-1.06,0.52-1.99,1-2.91
		c1.37-2.64,2.73-5.29,4.11-7.93c0.67-1.29,1.08-2.63,1.06-4.09c1.9,1.04,1.39,2.68,0.76,4.06c-1.48,3.24-3.16,6.39-4.79,9.56
		c-0.45,0.88-0.87,1.75-0.8,2.76c0.1,1.34-0.61,2.25-1.66,2.86c-2.19,1.28-4.55,1.42-6.96,0.75
		C232.38,174.94,231.87,174.63,231.74,173.96z"/>
	<path class="st12" d="M61.42,18.53c-0.61-2.65-0.12-5.34-0.26-8.01c-0.06-1.08-0.01-2.17-0.01-3.29c-0.7-0.05-0.92,0.48-1.29,0.77
		c-0.52,0.31-0.97,0.74-1.51,1.03c-0.4,0.17-0.83,0.29-1.24,0.44c-0.42,0.14-0.84,0.28-1.27,0.41c-0.63,0.16-1.28,0.19-1.89,0.41
		c-0.29,0.08-0.58,0.12-0.87,0.15c-0.51,0.03-1.02,0.05-1.53,0.05c-0.94-0.06-1.9,0.14-2.8-0.27c-0.61-0.6-0.03-0.87,0.33-1.21
		c0.33-0.22,0.68-0.37,1.05-0.5c1.45-0.32,2.93-0.53,4.29-1.18c0.73-0.35,1.43-0.71,1.07-1.73c-0.38-0.78-1.17-0.93-1.87-1.19
		c-0.87-0.33-1.63-0.72-1.56-1.84c1.02,0.14,2.06,0.18,3.04,0.44c6.45,1.69,6.63,2.3,6.41,7.81C61.41,13.37,61.45,15.95,61.42,18.53
		z"/>
	<path class="st13" d="M143.15,170.49c-0.48,0.92-1.36,1.74-0.78,2.94c-2.62,2.6-5.81,2.21-9.01,1.67
		c-0.53-0.09-0.89-0.49-0.86-1.11c1.75,0.07,3.51,0.21,5.25-0.05c2.48-0.38,3.43-1.61,4-4.01c0.86-3.55,2.66-6.72,4.86-9.63
		c0.44-0.59,1.16-1.08,1.86-0.66c0.78,0.47,0.37,1.24,0.05,1.88c-1.21,1.03-1.7,2.52-2.45,3.84
		C145.09,167.07,144.54,169.02,143.15,170.49z"/>
	<path class="st13" d="M220.76,173.99c1.68-0.01,3.38,0.1,5.04-0.06c2.61-0.25,3.57-1.52,4.19-4c0.88-3.54,2.71-6.68,4.87-9.62
		c0.44-0.59,1.09-1.02,1.86-0.72c0.78,0.3,0.48,0.92,0.26,1.47c-2.05,2.68-3.4,5.76-4.99,8.71c-0.69,1.13-2.06,2.03-1.22,3.67
		c-2.61,2.44-5.74,2.23-8.92,1.72C221.2,175.06,220.83,174.65,220.76,173.99z"/>
	<path class="st14" d="M319.7,151.42c-1.54-0.13-1.51-0.9-0.79-1.94c0.49-0.71,1.25-1.11,1.94-1.59c0.63-0.43,1.31-0.77,1.7-1.52
		c1.32-2.52,4.79-2.62,6.43-0.23c-0.89,2.64-3.16,3.76-5.45,4.74C322.36,151.39,321.11,152.26,319.7,151.42z"/>
	<path class="st15" d="M210.19,173.99c1.69-0.01,3.39,0.1,5.06-0.06c2.52-0.24,3.55-1.37,4.25-3.8c0.96-3.33,2.76-6.28,4.55-9.21
		c0.13-0.22,0.33-0.4,0.52-0.58c0.57-0.56,1.23-1.19,2.02-0.62c0.74,0.53-0.11,1.15-0.19,1.74c-2.03,2.69-3.19,5.88-5.01,8.7
		c-0.67,1.09-2.46,1.7-1.49,3.49c-2.55,2.27-5.56,2-8.59,1.51C210.69,175.06,210.27,174.66,210.19,173.99z"/>
	<path class="st16" d="M202.8,168.53c-1.34-0.47-1.47-1.51-1.21-2.68c0.27-1.23,1.23-1.31,2.27-1.29c1.55,0.03,3.11-0.09,4.65,0.03
		c2.19,0.17,3.52-0.89,4.49-2.7c1.09-2.02,1.38-4.14,0.97-6.37c1.43,0.86,1.6,2.26,1.52,3.71c-0.09,1.71-0.7,3.26-1.63,4.71
		c-0.84,1.3-1.94,1.99-3.55,1.91c-1.61-0.08-3.23-0.02-4.85-0.02C203.14,165.85,202.94,166.05,202.8,168.53z"/>
	<path class="st17" d="M262.39,168.54c-1.45-0.54-1.41-1.69-1.14-2.88c0.27-1.19,1.26-1.09,2.17-1.09c1.36,0.01,2.71,0,4.07,0
		c3.3,0,4.43-0.79,5.65-3.87c0.66-1.68,0.64-3.4,0.47-5.15c1.84,1.37,1.6,3.27,1.23,5.13c-0.76,3.79-2.47,5.15-6.27,5.15
		c-1.17,0-2.34,0-3.51,0C262.67,165.85,262.47,166.05,262.39,168.54z"/>
	<path class="st18" d="M351.27,168.55c-1.37-0.44-1.44-1.49-1.23-2.66c0.23-1.29,1.17-1.35,2.21-1.33c1.69,0.03,3.38-0.07,5.07,0.03
		c1.8,0.11,2.92-0.75,3.82-2.17c1.35-2.13,1.64-4.44,1.38-6.88c1.83,1.56,1.52,3.49,0.96,5.46c-0.37,1.68-1.53,2.94-2.34,4.38
		c-2.31,0.88-4.72,0.35-7.08,0.43C351.48,165.91,351.37,165.95,351.27,168.55z"/>
	<path class="st19" d="M32.93,8.82c-1.35-0.05-2.35-0.87-3.52-1.72c0,3.24,0.02,6.33-0.01,9.42c-0.01,0.67,0.28,1.44-0.38,2
		c-0.03-3.82-0.05-7.64-0.08-11.46c-0.01-1.85,1.3-2.53,2.74-3.1c0.78-0.31,1.55-0.65,2.42-0.65c1.22-0.54,2.2,0.05,3.16,0.69
		c0.1,0.16,0.12,0.33,0.07,0.52c-0.83,0.71-1.98,0.86-2.8,1.6C33.71,6.85,33.93,8.19,32.93,8.82z"/>
	<path class="st20" d="M344.72,173.94c5.1,0.85,10.27-1.38,12.59-5.43c1.21-0.39,1.61,0.07,1.25,1.23c-0.13,0.42-0.32,0.87-0.62,1.2
		c-2.85,3.17-6.39,4.79-10.68,4.52C346.23,175.4,345.23,175.01,344.72,173.94z"/>
	<path class="st20" d="M255.81,173.92c5.41,0.93,9.57-1.07,12.73-5.42c1.14-0.28,1.41,0.23,1.15,1.25
		c-0.98,3.91-10.02,7.25-13.29,4.9C256.16,174.48,256.01,174.17,255.81,173.92z"/>
	<path class="st21" d="M196.29,173.96c5.17,0.77,10.17-1.39,12.65-5.48c1.76-0.43,0.98,0.9,1.11,1.6c-0.09,0.83-0.76,1.32-1.16,1.97
		c0,0,0.05,0,0.05,0c-2.27,1.28-4.42,2.87-7.07,3.3C199.85,175.66,197.76,176,196.29,173.96z"/>
	<path class="st22" d="M171.41,168.54c-0.7-0.62-0.14-1.23,0.1-1.74c1.04-2.21,2.15-4.4,3.26-6.58c0.78-1.53,1.25-3.11,0.95-4.84
		c1.52,0.85,1.63,2.18,1.28,3.68c-0.52,2.24-1.88,4.1-2.83,6.15c-0.52,1.11-1.07,2.21-1.61,3.31
		C172.18,168.86,171.8,168.78,171.41,168.54z"/>
	<path class="st23" d="M119.46,168.94c0.59,0.35,0.92-0.13,1.32-0.41c-0.25,1-0.34,1.97,0.67,2.65c-0.5,0.64-0.9,1.31-0.72,2.17
		c-3.34,2.53-7.13,2.37-10.98,1.77c-0.57-0.09-1.11-0.4-1.16-1.12c2.92,0.05,5.86,0.37,8.69-0.66
		C119.69,172.46,120.41,170.96,119.46,168.94z"/>
	<path class="st24" d="M395.4,150.58c-0.14,0.14-0.27,0.28-0.41,0.42c-0.8,0.44-1.72-0.06-2.53,0.3c-0.09,0.06-0.18,0.11-0.28,0.14
		c-3.4-0.64-5.83-3.32-6.13-6.75c-0.29-3.33,1.61-6.41,4.67-7.62c0.41-0.16,0.79-0.39,1.18-0.59c0.39-0.11,0.79-0.18,1.16,0.07
		c0.13,0.27,0.26,0.53,0.39,0.8c-0.42,0.57-1.09,0.65-1.7,0.85c-3.01,1.01-4.38,3.29-4,6.66c0.31,2.7,2.5,4.86,5.24,5.2
		C393.82,150.16,394.71,149.91,395.4,150.58z"/>
	<path class="st18" d="M300.68,158.13c-0.37,0.34-0.69,0.89-1.3,0.56c-0.5-0.27-0.29-0.8-0.23-1.23c0.22-1.47,0.47-2.94,0.7-4.41
		c0.26-1.65,0.73-3.14,2.41-3.96c0.79-0.39,1.13-1.22,1.47-2c1.87,0.68,1.47,2.1,0.38,2.75
		C300.79,151.8,301.18,155.11,300.68,158.13z"/>
	<path class="st25" d="M319.7,151.42c3.82-0.49,6.91-2.26,9.29-5.28c1.27,0.48,1.37,1.37,0.54,2.24c-2.28,2.39-5.01,4-8.4,4.25
		C320.29,152.68,319.53,152.59,319.7,151.42z"/>
	<path class="st26" d="M171.41,168.54c0.38-0.01,0.77-0.01,1.15-0.02c0.06,0.53-0.41,1.2,0.4,1.53c-0.13,0.59-0.25,1.18-0.38,1.77
		c-1.6,1.48-3.21,2.99-5.4,3.53c-1.14,0.28-2.48,0.7-2.99-1.04c2.82-0.18,4.94-1.66,6.77-3.64
		C171.48,170.12,172.26,169.45,171.41,168.54z"/>
	<path class="st27" d="M121.92,173.99c1.49,0.01,2.98,0.1,4.46,0c2.2-0.14,4.01-0.96,4.84-3.21c0.36,0.18,0.41,0.5,0.41,0.85
		c-0.05,0.68-0.7,1.36,0,2.04c-2.57,2.24-5.58,2-8.63,1.49C122.41,175.06,121.93,174.7,121.92,173.99z"/>
	<path class="st28" d="M161.61,161.17c2.2-0.56,3.53-2.35,5.2-3.67c0.5-0.4,1.08-0.89,1.76-0.52c0.72,0.39,0.27,1.02,0.12,1.55
		c-1.38,1.57-2.8,3.08-4.87,3.76c-0.41,0.06-0.81,0.12-1.22,0.18C161.88,162.33,161.64,161.83,161.61,161.17z"/>
	<path class="st29" d="M322.85,174.07c2.74,0.77,4.8-1.01,7.28-2.23c-0.17,0.98-0.27,1.58-0.38,2.18c-1.28,0.88-2.65,1.53-4.24,1.54
		C324.35,175.55,323.37,175.21,322.85,174.07z"/>
	<path class="st30" d="M155.44,174.11c2.07,0.44,3.93-0.15,5.64-1.24c1.26-0.8,1.83-0.44,1.98,0.95c-1.6,0.95-3.2,1.87-5.17,1.73
		C156.85,175.46,155.86,175.27,155.44,174.11z"/>
	<path class="st31" d="M39.18,2.47c1.79-0.65,3.63-0.26,5.45-0.28c0.13,1-0.74,1.05-1.3,1.4c-0.75,0.67-0.41,1.57-0.49,2.38
		c-0.09,0.95,0.18,1.95-0.42,2.83c-0.27,0.19-0.55,0.22-0.86,0.11c-0.73-0.71-0.48-1.64-0.55-2.5c-0.06-0.8,0.13-1.67-0.68-2.23
		c-0.14-0.1-0.27-0.21-0.39-0.34c-0.12-0.44-0.16-0.93-0.66-1.16C39.25,2.61,39.22,2.54,39.18,2.47z"/>
	<path class="st32" d="M43.11,2.94c0.64,0.02,1.23-0.06,1.52-0.75c1.05,0,2.09,0,3.14,0c0.34,0.41,0.35,0.82,0.03,1.25
		c-0.93,0.59-1.97,0.38-2.98,0.43c-0.56-0.05-1.13-0.04-1.62-0.36C42.99,3.35,42.96,3.16,43.11,2.94z"/>
	<path class="st33" d="M37.25,4.12c-1.17,0.19-1.95-1.15-3.16-0.81c0.58-0.39,1.23-0.44,1.9-0.41c0.63-0.37,1.41,0.09,2.03-0.34
		c0.39-0.03,0.77-0.05,1.16-0.08c0,0-0.02,0.15-0.02,0.15c0.23,1.14-0.56,1.42-1.4,1.65C37.57,4.29,37.4,4.24,37.25,4.12z"/>
	<path class="st34" d="M52.06,2.55c0.49,0.82,1.19,1.31,2.12,1.56c0.71,0.19,1.49,0.38,1.75,1.25c-1.65,0.19-3-0.64-4.41-1.29
		c-0.37-0.55-0.61-1.09,0.15-1.53C51.8,2.55,51.93,2.55,52.06,2.55z"/>
	<path class="st35" d="M181.71,168.54c1.31-0.97,2.8-0.21,4.18-0.41c0.76,0.8,1.94-0.11,2.7,0.66c-1.16,0.02-2.32,0.04-3.48,0.05
		C184.02,168.3,182.77,169.44,181.71,168.54z"/>
	<path class="st36" d="M140.31,155.31c-0.17,0.2-0.29,0.45-0.5,0.57c-0.57,0.32-1.12,1.33-1.72,0.75c-0.6-0.57,0.33-1.2,0.65-1.79
		C139.27,154.96,139.98,154.49,140.31,155.31z"/>
	<path class="st37" d="M228.58,155.33c-0.18,0.19-0.32,0.43-0.54,0.55c-0.56,0.33-1.06,1.39-1.71,0.77
		c-0.54-0.52,0.32-1.22,0.66-1.81C227.53,154.98,228.26,154.49,228.58,155.33z"/>
	<path class="st38" d="M47.78,3.24c-0.01-0.35-0.01-0.7-0.02-1.05c0.39,0,0.79,0,1.18,0c0.79,0.37,2.14,0.08,1.93,1.63
		c-0.36,0.26-0.75,0.27-1.17,0.21C49.06,3.8,48.25,3.93,47.78,3.24z"/>
	<path class="st39" d="M149.19,156.11c-0.26,0.37-0.58,0.9-1.02,0.68c-0.81-0.41-0.3-1.23-0.35-1.87
		C148.54,155,148.87,155.55,149.19,156.11z"/>
	<path class="st40" d="M50.9,3.67c-0.65-0.49-1.3-0.99-1.96-1.48c0.94-0.09,1.86-0.08,2.73,0.35c-0.25,0.4-0.22,0.8-0.01,1.2
		C51.39,3.95,51.13,3.91,50.9,3.67z"/>
	<path class="st41" d="M237.44,156.14c-0.26,0.34-0.57,0.89-1.02,0.56c-0.58-0.42-0.17-1.16-0.24-1.76
		C236.85,155.07,237.19,155.55,237.44,156.14z"/>
	<path class="st42" d="M393.06,136.55c-0.39-0.02-0.77-0.05-1.16-0.07c1.31-0.44,2.61-0.59,3.89,0.08
		C394.88,136.63,393.97,136.22,393.06,136.55z"/>
	<path class="st43" d="M208.89,172.04c0.18-0.77,0.66-1.38,1.16-1.97c0.23,0.12,0.46,0.24,0.69,0.36
		C210.13,170.98,209.51,171.51,208.89,172.04z"/>
	<path class="st44" d="M154.29,169.08c-0.13-0.84,0.15-1.54,0.77-2.11c0.13,0.14,0.25,0.28,0.38,0.41
		C155.18,168.03,154.94,168.69,154.29,169.08z"/>
	<path class="st45" d="M364.12,174.26c-0.3,0.12-0.63,0.18-0.75,0.54c-0.67-0.13-1.02-0.6-1.29-1.18
		C362.77,173.83,363.45,174.04,364.12,174.26z"/>
	<path class="st46" d="M153.14,172.81c0.13-0.79-0.21-1.64,0.28-2.4c0.49,0.66,0.28,1.38,0.15,2.09
		C153.42,172.6,153.28,172.7,153.14,172.81z"/>
	<path class="st47" d="M38.02,2.55c-0.59,0.65-1.34,0.33-2.03,0.34C36.61,2.5,37.31,2.51,38.02,2.55z"/>
	<path class="st48" d="M153.56,172.5c-0.05-0.7-0.1-1.39-0.15-2.09c0,0,0.01,0,0.01,0c0.21-0.12,0.39-0.09,0.56,0.08
		c-0.04,0.65-0.07,1.29-0.11,1.94C153.77,172.44,153.67,172.47,153.56,172.5z"/>
	<path class="st42" d="M397.74,137.38c-0.57-0.25-1.14-0.51-1.7-0.76C396.76,136.53,397.42,136.56,397.74,137.38z"/>
	<path class="st42" d="M395.4,150.58c-0.77,0.01-1.55,0.08-2.32,0.03c-3.1-0.22-5.61-2.83-5.91-5.94c-0.32-3.25,1.66-6.58,4.81-6.9
		c0.5-0.05,0.99-0.27,1.48-0.41c5.15,0.71,7.89,4.29,6.6,8.63C399.35,148.37,397.6,149.69,395.4,150.58z"/>
	<path class="st49" d="M392.46,151.31c0.78-0.64,1.7-0.14,2.53-0.3C394.22,151.67,393.31,151.27,392.46,151.31z"/>
	<path class="st50" d="M21.63,163.33c-5.1-1.03-10.02-2.61-14.66-5c-1.75-0.9-2.58-2.09-2.58-4.28C4.46,114.33,4.44,74.62,4.44,34.9
		c0-0.69,0-1.38,0-2.4c5.8,3.8,12.23,4.52,18.47,5.83c-0.89,1.36-1.06,2.86-1.06,4.45c0.02,39.04,0.02,78.08,0,117.12
		C21.86,161.04,22.24,162.22,21.63,163.33z"/>
	<path class="st51" d="M113.66,110.88c-0.15,4.42-0.15,4.42-4.31,5.65c-4.23,1.25-8.49,2.44-12.7,3.76
		c-1.21,0.38-1.45,0.08-1.39-1.07c0.1-2.01,0.15-4.02,0.12-6.03c-0.02-1.07,0.4-1.54,1.44-1.6c1.8-0.09,2.64-1.15,2.84-2.86
		c0.11-0.96,0.38-1.92,0.4-2.88c0.18-12.14,0.34-24.28,0.49-36.42c0.01-0.71-0.02-1.43-0.06-2.14c-0.14-2.41-0.43-2.71-2.86-2.34
		c-1.11,0.17-1.53,0.01-1.46-1.21c0.12-2.07,0.15-4.15,0.12-6.23c-0.01-0.98,0.4-1.35,1.3-1.55c6.33-1.45,12.53-3.4,18.74-5.3
		c6.25-1.92,10.44,0.06,12.24,6.31c2.96,10.25,1.01,19.65-5.97,27.85c-2.79,3.28-6.73,4.57-10.67,5.69
		c-1.96,0.55-2.67,1.4-2.58,3.48c0.17,3.69-0.05,7.4-0.02,11.1c0.02,2.15,0.7,2.69,2.62,1.93c1.58-0.62,1.91-0.17,1.72,1.33
		C113.58,109.18,113.66,110.03,113.66,110.88z"/>
	<path class="st51" d="M268.62,101.51c-0.19,0.51-0.48,0.97-0.54,1.47c-0.25,2.11-1.49,2.3-3.28,1.97
		c-1.13-0.21-1.48-0.67-1.57-1.75c-0.54-6.6-1.06-13.2-1.74-19.79c-0.19-1.8,0.46-2.34,2.07-2.61c2.66-0.45,2.66-0.54,3.4,2.15
		c1.23,4.5,3.13,8.66,6.35,12.12c1.3,1.4,2.83,2.52,4.69,3.04c2.12,0.59,4.28,0.9,6.03-0.87c1.82-1.84,1.66-4.12,1.05-6.39
		c-0.48-1.78-1.76-3.04-3.22-4.04c-2.95-2.01-5.95-3.96-8.98-5.84c-9.44-5.84-11.68-15.08-9.96-24.43c0.81-4.41,3.11-7.91,7.66-9.23
		c4.82-1.4,8.99,0.15,12.5,3.52c1.16,1.11,1.74,1.83,2.4-0.36c0.46-1.52,1.79-0.29,2.71-0.4c0.71-0.08,1.35,0.05,1.5,1.07
		c0.87,5.91,1.81,11.8,2.74,17.7c0.11,0.68-0.08,1.02-0.74,1.32c-3.53,1.6-3.68,1.55-5.16-1.96c-1.66-3.92-3.63-7.63-7.16-10.25
		c-1.38-1.03-2.9-1.73-4.66-1.8c-2.58-0.1-4.34,1.75-4.04,4.32c0.3,2.58,1.46,4.74,3.63,6.19c3.89,2.6,7.94,4.95,11.74,7.66
		c8.09,5.76,10.32,19.74,4.59,27.89c-4.78,6.79-13.39,7.53-19.43,1.67C270.41,103.16,269.6,102.42,268.62,101.51z"/>
	<path class="st51" d="M144.63,64.56c1.93-1.82,3.33-3.53,5.22-4.73c4.56-2.9,8.85-1.47,10.74,3.61c0.81,2.17,1,4.43,0.95,6.71
		c-0.12,5.71-0.29,11.42-0.43,17.14c-0.04,1.43-0.07,2.86-0.06,4.28c0.01,1.57,0.66,2.53,2.39,2.18c1.44-0.3,1.79,0.29,1.7,1.64
		c-0.11,1.75-0.08,3.51-0.01,5.26c0.04,0.99-0.32,1.37-1.28,1.5c-4.44,0.6-8.89,1.22-13.32,1.89c-0.91,0.14-1.15-0.1-1.12-0.97
		c0.08-2.14,0.11-4.28,0.11-6.43c0-0.75,0.19-1.23,1.01-1.36c1.47-0.23,2.09-1.22,2.11-2.61c0.12-6.75,0.3-13.5,0.29-20.26
		c-0.01-3.06-1.86-3.92-4.39-2.13c-2.49,1.76-4.32,3.79-4.16,7.33c0.23,5.18-0.1,10.38-0.18,15.58c-0.02,1.57-0.05,3.15,2.3,2.84
		c0.84-0.11,0.7,0.58,0.7,1.06c-0.01,2.14-0.08,4.29-0.06,6.43c0.01,0.85-0.28,1.27-1.15,1.48c-4.42,1.07-8.84,2.16-13.22,3.34
		c-1.22,0.33-1.31-0.13-1.25-1.09c0.09-1.36,0.21-2.73,0.13-4.09c-0.12-1.97,0.17-3.45,2.46-4.05c1.43-0.37,1.45-1.86,1.47-3.11
		c0.09-5,0.16-10,0.24-15c0.13-8.25,0.22-16.49,0.42-24.74c0.04-1.6-0.42-2.03-1.83-1.39c-1.79,0.8-2.18,0.12-2.03-1.63
		c0.18-2.06-0.47-4.42,0.32-6.15c0.76-1.68,3.41-1.8,5.05-2.95c1.33-0.93,2.71-1.79,4.01-2.76c0.59-0.44,1.2-0.72,1.89-0.93
		c1.28-0.39,1.52,0.05,1.48,1.3c-0.22,7.07-0.35,14.15-0.52,21.23C144.62,63.36,144.63,63.74,144.63,64.56z"/>
	<path class="st51" d="M376.32,61.58c0.91-0.31,1.11-0.98,1.52-1.45c1.23-1.43,2.34-2.96,3.83-4.14c4.21-3.36,8.34-2.68,11.19,1.86
		c1.62,2.58,2.46,5.45,2.75,8.44c1.03,10.62-1.16,20.39-7.89,28.9c-0.52,0.66-1.16,1.23-1.81,1.76c-2.65,2.11-5.41,3.72-8.95,1.35
		c-0.24,3.31-0.52,6.38-0.67,9.47c-0.08,1.68,1.19,1.69,2.32,1.4c1.46-0.38,1.81,0.05,1.58,1.48c-0.27,1.66-0.38,3.35-0.52,5.03
		c-0.09,1.08-0.38,1.68-1.69,1.84c-4.57,0.59-9.13,1.33-13.68,2.1c-1.18,0.2-1.69,0.11-1.46-1.29c0.29-1.79,0.44-3.61,0.52-5.42
		c0.04-0.96,0.4-1.39,1.33-1.51c2.11-0.27,2.89-1.63,3.08-3.61c0.51-5.3,0.7-10.62,0.8-15.94c0.11-6.23,0.12-12.47,0.25-18.7
		c0.03-1.36-0.28-1.66-1.64-1.28c-2.34,0.66-2.19,0.55-2.45-1.83c-0.41-3.74-0.01-6.74,4.3-8.02c1.33-0.39,2.36-1.78,3.52-2.72
		c0.35-0.29,0.63-0.67,1.01-0.92c0.71-0.46,1.63-0.92,2.35-0.65c0.69,0.26,0.22,1.27,0.32,1.95
		C376.3,60.25,376.28,60.83,376.32,61.58z"/>
	<path class="st51" d="M309.77,71.67c1.99-1.49,3.52-2.79,5.4-3.56c3.95-1.61,7.53-0.38,9.63,3.35c1.35,2.4,1.67,5.02,1.67,7.71
		c-0.01,6.43-0.04,12.85-0.03,19.28c0.01,2.72,0.24,2.97,3,2.95c0.94,0,1.11,0.35,1.08,1.13c-0.07,1.95-0.13,3.89-0.15,5.84
		c-0.01,0.85-0.41,1.13-1.19,1.14c-4.42,0.03-8.84,0.07-13.26,0.13c-0.92,0.01-1.06-0.46-1.03-1.23c0.06-1.49,0.1-2.98,0.08-4.48
		c-0.01-1.25-0.21-2.45,1.73-2.43c1.02,0.01,1.26-1.1,1.27-1.93c0.04-6.49,0.13-12.98-0.02-19.46c-0.06-2.55-1.71-3.33-4.08-2.36
		c-3.15,1.29-4.24,2.88-4.25,6.27c-0.02,4.87-0.01,9.74-0.03,14.6c-0.01,1.59,0.31,2.88,2.26,2.94c0.71,0.02,0.83,0.48,0.82,1.06
		c-0.05,1.95-0.11,3.89-0.11,5.84c0,1.02-0.53,1.13-1.38,1.08c-4.22-0.27-8.43-0.54-12.65-0.73c-1.22-0.05-1.54-0.5-1.44-1.66
		c0.13-1.68,0.16-3.37,0.1-5.06c-0.04-1.15,0.38-1.51,1.47-1.32c1.82,0.31,2.42-0.61,2.43-2.31c0.07-12.4,0.15-24.79,0.29-37.19
		c0.02-1.37-0.66-1.5-1.66-1.42c-1.71,0.14-2.45-0.48-2.25-2.32c0.19-1.73-0.45-3.77,0.26-5.18c0.77-1.52,3.14-0.73,4.73-1.35
		c1.45-0.56,2.92-1.07,4.34-1.72c2.32-1.07,3.18-0.5,3.15,1.97c-0.07,6.1-0.12,12.2-0.17,18.3
		C309.76,70.12,309.77,70.69,309.77,71.67z"/>
	<path class="st51" d="M332.89,85.8c0.17-6.69,1.57-13.67,6.26-19.61c4.25-5.39,11.05-6.08,16.35-1.74
		c2.63,2.16,4.53,4.89,5.56,8.09c2.99,9.3,2.9,18.53-1.22,27.51c-1.54,3.37-3.87,6.15-7.33,7.77c-5.75,2.69-11.53,1.11-15.07-4.12
		C333.89,98.48,333,92.57,332.89,85.8z"/>
	<path class="st51" d="M168.83,80.02c0.22-6.77,1.12-13.47,5.69-19.07c3.33-4.08,7.56-6.15,12.88-4.97
		c4.84,1.07,7.73,4.62,9.27,8.95c3.49,9.79,3.05,19.53-1.85,28.81c-3.01,5.71-8.31,8.31-14.18,7.44c-3.53-0.52-6.07-2.48-7.96-5.38
		C169.59,91.04,168.94,85.66,168.83,80.02z"/>
	<path class="st51" d="M257.88,79.96c-0.19,5.82-0.79,11.57-4.12,16.58c-5.98,9.01-17.3,8.41-22.41-1.13
		c-1.59-2.96-2.46-6.15-2.71-9.47c-0.6-7.86-0.32-15.6,3.91-22.62c4.94-8.19,13.99-8.78,19.98-1.28
		C256.7,67.27,257.86,73.46,257.88,79.96z"/>
	<path class="st51" d="M224.09,88.53c0,2.99,0,5.74,0,8.49c0,0.61-0.41,0.93-0.85,1.2c-1.55,0.97-3.15,1.82-4.98,2.13
		c-6.1,1.03-10.57-2.09-11.78-8.19c-0.5-2.5-0.4-5.04-0.35-7.56c0.13-5.84,0.24-11.67,0.45-17.51c0.05-1.4-0.24-2.13-1.77-1.82
		c-1.77,0.35-2.5-0.34-2.19-2.14c0.09-0.5,0.05-1.04,0.01-1.55c-0.19-2.69,0.16-4.87,2.55-6.92c3.3-2.82,3.92-7.16,4.55-11.3
		c0.13-0.84-0.3-2.18,0.69-2.41c1.35-0.32,2.85-0.19,4.25,0c0.71,0.09,0.39,0.99,0.4,1.53c0.03,3.96,0.08,7.91,0.01,11.87
		c-0.02,1.25,0.29,1.7,1.59,1.63c1.88-0.1,3.77,0.05,5.65,0.02c1.01-0.02,1.37,0.34,1.34,1.36c-0.08,2.27-0.1,4.54-0.05,6.81
		c0.02,1.08-0.44,1.3-1.41,1.25c-1.88-0.1-3.77-0.03-5.65-0.15c-1.17-0.07-1.59,0.26-1.59,1.48c-0.03,6.29-0.14,12.58-0.22,18.87
		c-0.03,2,0.48,3.77,2.36,4.79c1.97,1.07,3.78,0.3,5.49-0.76C223.08,89.36,223.5,88.98,224.09,88.53z"/>
	<path class="st50" d="M76.16,36.79c0.44-0.48,1.08-0.4,1.63-0.56c3.64-1.06,3.65-1.05,3.65,2.87c0,39.05,0.01,78.1,0.02,117.15
		c0,3.41,0,3.42-3.3,4.55c-0.49,0.17-0.99,0.26-1.49,0.39c-0.17-1.55,0.16-3.09,0.16-4.64c-0.03-38.46-0.02-76.92-0.02-115.38
		C76.79,39.67,76.85,38.18,76.16,36.79z"/>
	<path class="st52" d="M21.63,163.33c-0.25-0.8-0.4-1.61-0.4-2.47c0.02-39.8,0.01-79.6,0.01-119.4c0-1.34-0.12-2.75,1.67-3.14
		c1.04,0.07,2.11-0.09,3.09,0.42c-0.54,1.06-0.66,2.2-0.65,3.38c0.02,4.26,0.01,8.52,0,12.77c0,0.71,0.01,1.42-0.2,2.11
		c-1.57,2.18-1.5,3.24,0.35,5.47c0.22,0.26,0.26,0.57,0.21,0.91c-0.32,1.14-0.35,2.31-0.35,3.48c0.01,5.91,0.01,11.81,0,17.72
		c0,1.03,0.12,2.09-0.49,3.02c-1.33,1.48-1.04,4.23,0.55,5.18c0.51,0.3,1.36,0.43,0.71,1.35c-0.94,0.95-0.75,2.16-0.75,3.3
		c-0.01,10.41,0,20.83-0.01,31.24c0,1.03,0.09,2.07-0.2,3.08c-1.3,1.37-1.54,5.26-0.41,6.95c0.39,0.58,1.02,1.03,0.94,1.85
		c-0.83,1.87-0.21,3.83-0.37,5.74c-0.09,1.16,0.08,2.35-0.78,3.32c-1.04,2.21-0.4,4.1,1.13,5.82c-0.54,1.97-0.28,3.98-0.35,5.97
		c-0.03,0.88,0.16,1.83-0.57,2.56C23.66,163.96,22.62,163.77,21.63,163.33z"/>
	<path class="st53" d="M60.26,164.98c-0.23,0.03-0.45,0.05-0.68,0.08c-4.61,0.56-4.61,0.56-4.61-3.92c0-0.52,0.03-1.03,0.01-1.55
		c-0.06-1.6,0.68-2.56,2.26-2.86c0.7-0.13,1.39-0.31,1.97-0.74c0.91-1.16,0.46-2.51,0.43-3.76c-0.02-0.99-0.81-0.92-1.6-0.8
		c-2.8,0.41-3.03,0.21-3.04-2.6c-0.01-2.01-0.11-4.02,0.08-6.03c0.19-1.06,0.96-1.68,1.82-2.11c2.01-0.99,2.74-2.56,2.45-4.72
		c-0.1-0.75,0.13-1.53-0.18-2.41c-1.02,0.42-1.81,1.24-2.86,1.5c-0.91,0.26-1.58-0.04-1.81-0.95c-0.33-1.27-0.53-2.57,0.4-3.7
		c0.41-0.49,0.94-0.89,1.31-1.42c1.49-1.88,2.91-3.82,3.49-6.2c0.87-3.53-0.07-5.8-3.14-7.75c-0.49-0.31-1.02-0.57-1.47-0.94
		c-1.43-2.12-1.14-4.27-0.1-6.42c1.16-1.39,2.65-2.45,3.67-4c2.17-3.3,1.8-5.52-1.42-7.76c-1.23-0.86-1.22-1.06,0.2-1.71
		c0.69-0.32,1.51-0.41,1.81-1.31c0.68-1.98-0.06-2.86-2.16-2.59c-0.82,0.1-1.65,0.49-2.46-0.04c-0.86-1.11-1-2.28-0.24-3.5
		c0.13-0.15,0.29-0.27,0.47-0.35c0.59-0.22,1.25-0.31,1.59-0.95c1.27-1.37,2.69-2.62,3.25-4.53c0.58-1.97,0.39-3.72-1.16-5.18
		c-1.1-1.04-1.6-1.95,0.01-3.09c1.42-1.01,0.58-2.61,0.84-4.02c-1.36,0.12-2.28,1.21-3.54,0.77c-1.41-1.26-0.81-2.82-0.64-4.31
		c0.28-0.66,0.87-0.9,1.5-1.1c2.64-0.84,2.63-0.85,2.62-3.59c0-0.26,0.02-0.52-0.15-0.8c-1-0.13-1.98,0.5-3.02,0.22
		c-1.82-1.22-2.07-3.1-0.76-5.52c0.29-0.43,0.66-0.83,1.12-1.03c2.94-1.29,3.19-3.67,2.69-6.37c-0.92,0.76-1.77,1.65-3.14,1.54
		c-1.05-0.33-1.03-1.24-1.05-2.06c-0.04-2.21,0.17-4.44-0.57-6.58c2.05-0.75,4.17-0.36,6.26-0.42c0.27,0.04,0.46,0.18,0.59,0.42
		c0.4,0.86,0.34,1.78,0.34,2.68c0.01,39.69,0.01,79.38-0.02,119.07C61.65,162.82,62.1,164.4,60.26,164.98z"/>
	<path class="st54" d="M60.26,164.98c1.02-0.65,0.77-1.68,0.77-2.63c0-40.93,0-81.86,0-122.79c2.31-1.39,3.61-0.79,3.74,1.72
		c0.03,0.58,0.02,1.17,0.02,1.75c0,39.17,0,78.34-0.01,117.51c0,1.28,0.24,2.61-0.6,3.77C62.91,164.73,61.61,165.01,60.26,164.98z"
		/>
	<path class="st55" d="M67.63,38.37c0.74-0.43,1.57-0.35,2.37-0.38c1.63-0.11,2.18,0.8,2.18,2.26c0,0.65,0.02,1.3,0.02,1.95
		c0,38.91,0,77.83-0.01,116.74c0,1.27,0.28,2.62-0.62,3.75c-1.63,0.63-3.32,1.05-5.07,1.2c-0.13-0.24-0.09-0.45,0.1-0.64
		c0.27-0.25,0.62-0.36,0.93-0.56c0.72-0.36,0.98-0.99,1.03-1.75c0.05-0.71,0.04-1.43,0.04-2.14c0-38.73,0-77.46,0-116.19
		C68.6,41.12,68.77,39.6,67.63,38.37z"/>
	<path class="st56" d="M64.19,164.3c-0.01-29.15-0.02-58.3-0.03-87.44c0-11.75,0-23.5,0-35.25c0-2.71-0.37-2.95-3.12-2.05
		c-0.13,0-0.26,0-0.39,0c-0.13-0.1-0.16-0.19-0.12-0.28c0.05-0.09,0.09-0.13,0.14-0.13c1.36-0.35,2.75-0.43,4.15-0.4
		c0.62-0.18,1.24-0.35,1.81,0.14c0.15,0.58,0.07,1.16,0.07,1.74c0,39.87,0,79.75,0,119.62c0,0.9,0.12,1.82-0.17,2.7
		c-0.26,1.04-1.25,0.97-1.98,1.3l-0.16,0.09L64.19,164.3z"/>
	<path class="st52" d="M76.16,36.79c0.86-0.01,1.35,0.33,1.27,1.28c-0.04,0.45-0.01,0.91-0.01,1.36c0,39.63,0,79.27,0,118.9
		c0,1.03,0.16,2.09-0.77,2.86c-1.23,0.62-2.52,1.06-3.9,1.17c-0.16-0.67,0.37-0.84,0.79-1.1c0.94-0.45,1.24-1.25,1.28-2.23
		c0.03-0.78,0.03-1.56,0.03-2.33c0-38.34,0-76.68,0.02-115.02c0-1.57-0.13-3.06-0.95-4.43C74.63,36.91,75.38,36.75,76.16,36.79z"/>
	<path class="st57" d="M66.49,38.8c-0.56-0.02-1.12-0.04-1.68-0.06c0.89-0.48,1.87-0.36,2.82-0.37c1.1-0.1,1.77,0.25,1.6,1.51
		c-0.04,0.32-0.01,0.65-0.01,0.97c0,39.93-0.01,79.86,0.03,119.78c0,1.56-0.21,2.65-1.99,2.79c-0.84-0.94-0.57-2.09-0.57-3.17
		C66.7,120.94,66.7,81.61,66.7,42.29C66.7,41.12,66.75,39.95,66.49,38.8z"/>
	<path class="st58" d="M73.52,161.87c-0.34,0.03-0.63,0.13-0.77,0.48c-0.32,0.35-0.73,0.4-1.17,0.33c0-40.65-0.01-81.3,0.02-121.94
		c0-1.31-0.02-2.43-1.59-2.75c0.73-0.42,1.53-0.36,2.32-0.42c1.14-0.18,1.68,0.36,1.76,1.46c0.05,0.65,0.06,1.3,0.06,1.94
		c0,39.17,0,78.34,0,117.52C74.16,159.66,74.27,160.85,73.52,161.87z"/>
	<path class="st59" d="M73.52,161.87c0-40.81,0-81.62,0.05-122.43c0-1.07-0.34-1.56-1.23-1.87c0.48-0.31,1.02-0.37,1.58-0.33
		c1.3,0.05,1.6,0.68,1.6,1.99c-0.05,39.97-0.05,79.94,0,119.92C75.52,160.76,75,161.56,73.52,161.87z"/>
	<path class="st55" d="M60.66,39.14c-0.01,0.14-0.01,0.28-0.02,0.42c-2.08,0.03-4.18-0.09-6.23,0.4c-1.11,0.92-2.43,0.53-3.68,0.59
		c-1.21,0.05-2.42,0.05-3.63,0c-1.68-0.06-3.36,0.06-5.04-0.04c-0.82,0.01-1.63,0.05-2.45-0.01c-0.9,0.01-1.8,0.04-2.7,0.02
		c-0.26-0.01-0.52-0.03-0.78-0.03c-2.12,0.04-2.21,0.13-2.25,2.18c-0.03,1.62,0,3.24,0.11,4.85c-0.11,0.95-0.09,1.91-0.15,2.87
		c-0.11,1.75,0.13,3.31,1.73,4.38c0.37,0.25,0.64,0.64,0.57,1.14c-1.9,0.7-1.18,2.73-2.02,3.98c-1.31,0.27-2.49-0.07-3.6-0.76
		c-0.81-0.63-0.9-1.54-0.91-2.46c-0.05-5.25,0.02-10.5-0.05-15.75c-0.01-1.11,0.3-1.7,1.55-1.57c1.54,0.16,3.11-0.17,4.64,0.17
		C44.07,39.74,52.37,39.64,60.66,39.14z"/>
	<path class="st60" d="M59.87,156.46c-0.1,0.08-0.18,0.2-0.29,0.24c-1.3,0.47-3.42,0.17-3.78,1.39c-0.56,1.89-0.2,4.06-0.2,6.11
		c0,0.68,0.53,0.79,1.08,0.8c0.96,0.01,1.93,0.03,2.89,0.05c-0.99,0.46-2.06,0.33-3.1,0.38c-3.29,0.07-6.55,0.85-9.87,0.45
		c-0.88-2.61-1.19-5.2,0.3-7.71c0.19-0.18,0.39-0.4,0.63-0.42c3.94-0.4,7.8-1.41,11.77-1.68C59.53,156.15,59.72,156.28,59.87,156.46
		z"/>
	<path class="st42" d="M333.22,133.01c-5.01,0.06-4.97,0.06-4.89-4.91c0.02-1.17,0.33-1.59,1.54-1.56c2.33,0.06,4.67,0.01,7-0.08
		c1.04-0.04,1.46,0.18,1.5,1.36C338.53,132.95,338.57,132.95,333.22,133.01z"/>
	<path class="st61" d="M318.62,132.99c-5.34-0.08-5.32-0.07-4.98-5.36c0.06-0.93,0.33-1.22,1.26-1.19c2.46,0.08,4.93,0.12,7.39,0.09
		c1-0.01,1.31,0.29,1.35,1.32C323.86,133.07,323.89,133.06,318.62,132.99z"/>
	<path class="st42" d="M186.46,118.08c4.89-0.37,4.85-0.37,4.85,4.57c0,1.2-0.26,1.73-1.56,1.75c-2.39,0.04-4.78,0.2-7.16,0.41
		c-1.05,0.09-1.3-0.25-1.33-1.26C181.06,118.49,181.03,118.49,186.46,118.08z"/>
	<path class="st61" d="M185.49,30.22c0.31,0,0.18,0.01,0.06,0c-1.38-0.17-3.49,0.87-3.99-0.17c-0.7-1.48-0.24-3.52-0.28-5.32
		c-0.01-0.6,0.37-0.74,0.88-0.76c2.65-0.11,5.3-0.21,7.94-0.37c0.97-0.06,1.15,0.35,1.2,1.23
		C191.57,30.05,191.59,30.05,185.49,30.22z"/>
	<path class="st61" d="M318.63,32.29c0.13,0.01,0.26,0.01,0.39,0.02c5.19,0.21,5.16,0.21,4.62,5.49c-0.09,0.91-0.48,1.04-1.23,1.02
		c-2.53-0.07-5.05-0.14-7.58-0.15c-0.96,0-1.14-0.44-1.19-1.31C313.35,32.09,313.33,32.09,318.63,32.29z"/>
	<path class="st42" d="M93.05,140.2c0-3.03,0-3.03,2.95-4.02c1.9-0.63,3.81-1.23,5.7-1.88c0.96-0.33,1.51-0.24,1.36,0.95
		c-0.01,0.06,0,0.13,0,0.19c0.13,4.77,0.13,4.76-4.38,6.26c-0.8,0.26-1.59,0.53-2.39,0.8C93.05,143.59,93.05,143.59,93.05,140.2z"/>
	<path class="st42" d="M147.18,30.63c0,3.12,0,3.13-3.02,3.63c-1.86,0.31-3.74,0.51-5.58,0.89c-1.2,0.25-1.41-0.18-1.43-1.27
		c-0.12-4.98-0.15-4.98,4.78-5.69c0.71-0.1,1.41-0.23,2.12-0.32C147.18,27.47,147.18,27.47,147.18,30.63z"/>
	<path class="st61" d="M273.44,124.06c1.55,0.14,3.09,0.35,4.64,0.39c1.04,0.03,1.52,0.3,1.44,1.44c-0.09,1.29-0.05,2.58-0.01,3.88
		c0.03,0.86-0.11,1.29-1.17,1.17c-2.5-0.29-5.02-0.48-7.54-0.65c-0.99-0.07-1.41-0.46-1.29-1.45c0.04-0.38,0.01-0.77,0.01-1.16
		C269.52,123.76,269.52,123.76,273.44,124.06z"/>
	<path class="st42" d="M230.19,24.33c0.19,0.01,0.39,0.02,0.58,0.03c4.99,0.29,5.38,0.81,4.65,5.88c-0.1,0.66-0.31,0.89-0.96,0.84
		c-2.71-0.2-5.42-0.39-8.13-0.56c-0.64-0.04-0.96-0.3-0.93-0.95c0.01-0.13,0-0.26,0-0.39C225.12,24.07,225.12,24.07,230.19,24.33z"
		/>
	<path class="st42" d="M289.32,131.74c-0.13-0.01-0.26-0.02-0.39-0.03c-5.17-0.41-5.35-0.65-4.71-5.8c0.1-0.78,0.37-0.98,1.1-0.92
		c2.59,0.21,5.17,0.41,7.76,0.56c0.81,0.04,1.23,0.29,1.14,1.14c-0.01,0.06,0,0.13,0,0.19
		C294.51,132.12,294.51,132.12,289.32,131.74z"/>
	<path class="st42" d="M250.09,124.97c0,3.14,0,3.13-3.23,2.74c-1.74-0.21-3.48-0.42-5.23-0.58c-1.05-0.1-1.68-0.43-1.53-1.67
		c0.12-1.02,0.13-2.09,0-3.11c-0.23-1.74,0.62-1.9,2.01-1.68c1.92,0.3,3.86,0.59,5.8,0.69c1.67,0.09,2.53,0.64,2.19,2.43
		C250.03,124.18,250.09,124.58,250.09,124.97z"/>
	<path class="st42" d="M103.05,39.19c0,2.99,0,2.99-2.93,3.72c-1.95,0.49-3.92,0.91-5.85,1.47c-1.01,0.3-1.19,0-1.25-0.95
		c-0.3-5.1-0.33-5.1,4.61-6.34c0.69-0.17,1.38-0.36,2.07-0.53C103.05,35.72,103.05,35.72,103.05,39.19z"/>
	<path class="st61" d="M132.45,32.99c0,3.14,0,3.14-3.03,3.7c-1.92,0.35-3.85,0.63-5.75,1.07c-1.03,0.24-1.18-0.09-1.23-1.01
		c-0.28-5.17-0.3-5.17,4.68-6.1c1.08-0.2,2.22-0.25,3.25-0.59c1.79-0.59,2.35,0.01,2.07,1.76C132.4,32.2,132.45,32.6,132.45,32.99z"
		/>
	<path class="st42" d="M372.48,32.05c0-0.52,0.06-1.04-0.01-1.55c-0.15-1.12,0.28-1.61,1.42-1.81c2.42-0.42,4.83-0.93,7.22-1.49
		c1.04-0.24,1.33,0,1.38,1.08c0.22,5.09,0.25,5.08-4.75,6.13c-0.63,0.13-1.27,0.26-1.9,0.38C372.48,35.45,372.48,35.45,372.48,32.05
		z"/>
	<path class="st42" d="M269.52,31.88c0-3.14,0-3.14,3.21-2.82c1.88,0.19,3.75,0.43,5.62,0.57c0.9,0.07,1.14,0.44,1.18,1.33
		c0.23,5.14,0.25,5.14-4.86,4.72c-0.65-0.05-1.29-0.11-1.94-0.2C269.52,35.07,269.52,35.07,269.52,31.88z"/>
	<path class="st42" d="M289.48,37.09c-0.19-0.02-0.39-0.03-0.58-0.05c-5.08-0.46-5.35-0.83-4.68-5.91c0.11-0.82,0.44-0.93,1.13-0.87
		c2.58,0.24,5.17,0.49,7.76,0.67c0.83,0.06,1.18,0.4,1.11,1.21c-0.02,0.19,0,0.39,0,0.58C294.29,37.51,294.29,37.51,289.48,37.09z"
		/>
	<path class="st61" d="M132.45,129.29c0,0.65-0.06,1.3,0.01,1.93c0.11,0.92-0.36,1.23-1.17,1.41c-2.52,0.57-5.04,1.13-7.53,1.82
		c-1.12,0.31-1.29-0.02-1.33-1.05c-0.18-5.06-0.21-5.06,4.68-6.24c0.69-0.17,1.38-0.34,2.07-0.51
		C132.45,125.87,132.45,125.87,132.45,129.29z"/>
	<path class="st42" d="M250.09,29.73c0,3.11,0,3.1-3.05,2.72c-1.8-0.23-3.59-0.51-5.4-0.62c-1.14-0.07-1.53-0.41-1.55-1.61
		c-0.09-5.19-0.13-5.19,5.01-4.45c0.51,0.07,1.03,0.11,1.54,0.16C250.09,26.27,250.09,26.27,250.09,29.73z"/>
	<path class="st42" d="M137.16,127.87c0-3.04,0-3.04,2.95-3.65c1.97-0.41,3.96-0.77,5.92-1.2c0.85-0.18,1.24,0.05,1.14,0.95
		c-0.02,0.13,0,0.26,0,0.39c0.12,4.81,0.12,4.81-4.57,5.79c-0.7,0.15-1.4,0.29-2.1,0.44C137.16,131.32,137.16,131.32,137.16,127.87z
		"/>
	<path class="st42" d="M382.46,126.13c0,3.2,0,3.21-3.22,3.65c-1.8,0.25-3.61,0.39-5.4,0.67c-0.99,0.16-1.35-0.04-1.39-1.14
		c-0.21-5.06-0.25-5.05,4.83-5.7c1.16-0.15,2.34-0.2,3.46-0.5c1.42-0.38,1.91,0.05,1.73,1.46
		C382.41,125.08,382.46,125.61,382.46,126.13z"/>
	<path class="st62" d="M235.4,123.21c0,3.12,0,3.11-3.06,2.72c-1.8-0.23-3.6-0.5-5.41-0.6c-1.12-0.06-1.54-0.37-1.56-1.58
		c-0.09-5.18-0.13-5.17,5.01-4.48c0.51,0.07,1.03,0.11,1.55,0.16C235.4,119.79,235.4,119.79,235.4,123.21z"/>
	<path class="st42" d="M200.83,124.09c-5,0.01-4.96,0.01-4.85-4.99c0.03-1.12,0.37-1.45,1.45-1.43c2.4,0.05,4.81,0.04,7.21-0.03
		c1.03-0.03,1.29,0.36,1.33,1.36C206.18,124.08,206.21,124.08,200.83,124.09z"/>
	<path class="st61" d="M333.36,38.83c-0.06,0-0.13,0-0.19,0c-5.43,0.09-5.41,0.09-4.83-5.37c0.08-0.75,0.31-1,1.04-1.01
		c2.65-0.02,5.3-0.07,7.95-0.14c0.77-0.02,1.06,0.3,1.01,1.03c0,0.06,0,0.13,0,0.19C338.68,38.74,338.68,38.74,333.36,38.83z"/>
	<path class="st61" d="M200.93,29.83c-0.19,0-0.39,0.01-0.58,0c-1.4-0.11-3.59,0.65-4.02-0.29c-0.7-1.49-0.27-3.51-0.3-5.31
		c-0.01-0.73,0.52-0.78,1.07-0.79c2.59-0.03,5.18-0.04,7.77-0.1c0.87-0.02,1.17,0.37,1.1,1.17c-0.01,0.06,0,0.13,0,0.19
		C206.21,29.81,206.21,29.81,200.93,29.83z"/>
	<path class="st61" d="M304.2,38.11c-0.13-0.01-0.26-0.01-0.39-0.02c-5.29-0.33-5.27-0.32-4.85-5.58c0.07-0.83,0.28-1.14,1.14-1.07
		c2.58,0.18,5.17,0.32,7.75,0.44c0.72,0.03,1.07,0.29,1.03,1.04c-0.03,0.64-0.01,1.29-0.01,1.94c0,3.65,0,3.65-3.72,3.34
		C304.85,38.16,304.52,38.13,304.2,38.11z"/>
	<path class="st61" d="M387.21,28.73c0-3.02,0-3,2.84-3.88c1.99-0.61,3.97-1.23,5.93-1.91c0.85-0.29,1.25-0.14,1.17,0.81
		c-0.01,0.06,0,0.13,0,0.19c0.27,5.05,0.27,5.05-4.62,6.59c-0.68,0.21-1.37,0.42-2.05,0.63C387.21,32.16,387.21,32.16,387.21,28.73z
		"/>
	<path class="st61" d="M117.71,35.74c0,3.19,0,3.18-3.16,3.86c-1.84,0.39-3.68,0.75-5.5,1.21c-0.91,0.23-1.38,0.12-1.27-0.93
		c0.01-0.13,0-0.26,0-0.39c-0.11-4.81-0.11-4.81,4.59-5.83c1.2-0.26,2.43-0.45,3.6-0.8c1.3-0.39,1.96-0.19,1.74,1.33
		C117.65,34.69,117.71,35.22,117.71,35.74z"/>
	<path class="st61" d="M216.37,124.46c-0.64,0-0.77,0.01-0.9,0c-5.17-0.23-5.15-0.23-4.75-5.49c0.06-0.78,0.2-1.2,1.1-1.14
		c2.65,0.17,5.31,0.31,7.96,0.43c0.68,0.03,0.92,0.33,0.88,0.96c-0.01,0.13,0,0.26,0,0.39c-0.02,1.62,0.55,3.68-0.24,4.73
		C219.56,125.5,217.43,124.16,216.37,124.46z"/>
	<path class="st61" d="M264.77,126.44c0,3.32,0,3.31-3.29,2.91c-1.8-0.22-3.61-0.41-5.43-0.56c-0.75-0.06-1.12-0.24-1.22-1.11
		c-0.55-5.29-0.25-5.62,4.95-4.95c0.58,0.07,1.16,0.14,1.74,0.18C264.77,123.17,264.77,123.16,264.77,126.44z"/>
	<path class="st61" d="M367.72,128c0,3.18,0,3.18-3.12,3.43c-1.74,0.14-3.49,0.23-5.22,0.44c-1.11,0.13-1.59-0.05-1.62-1.36
		c-0.09-4.91-0.15-4.91,4.82-5.33c1.03-0.09,2.08-0.1,3.09-0.32c1.8-0.41,2.33,0.32,2.06,1.99
		C367.67,127.22,367.72,127.61,367.72,128z"/>
	<path class="st61" d="M176.56,27.59c0,3.17,0,3.17-3.09,3.4c-1.88,0.14-3.76,0.27-5.63,0.47c-0.93,0.1-1.2-0.19-1.25-1.14
		c-0.29-5.26-0.32-5.25,4.83-5.6c0.58-0.04,1.17-0.07,1.75-0.13C176.56,24.28,176.56,24.28,176.56,27.59z"/>
	<path class="st61" d="M264.77,31.43c0,3.22,0,3.21-3.14,2.8c-1.74-0.23-3.48-0.38-5.22-0.6c-0.49-0.06-1.34,0.02-1.38-0.46
		c-0.13-1.92-0.14-3.87-0.03-5.79c0.03-0.53,0.78-0.25,1.19-0.21c2.26,0.24,4.51,0.6,6.77,0.76c1.48,0.1,2.07,0.69,1.82,2.15
		C264.71,30.51,264.77,30.97,264.77,31.43z"/>
	<path class="st63" d="M35.77,39.52c-0.06,0-0.13,0.01-0.19,0.01c-1.79,0.15-4.26-0.75-5.19,0.37c-0.88,1.06-0.18,3.43-0.18,5.22
		c0,3.94,0.01,7.88-0.01,11.81c0,0.81,0.01,1.55,0.79,2.02c-1.75,0.62-3.07,0.24-4.3-1.24c-0.45-3.93-0.1-7.87-0.2-11.81
		c-0.04-1.62-0.01-3.23-0.02-4.85c-0.01-2.07,0-2.06,2.15-2.04c0.32,0,0.64-0.06,0.95,0.1C31.65,39.05,33.71,39.24,35.77,39.52z"/>
	<path class="st61" d="M304.04,132.56c-0.26-0.02-0.52-0.01-0.77-0.05c-1.38-0.26-3.54,0.47-4-0.54c-0.68-1.51-0.24-3.53-0.28-5.33
		c-0.01-0.62,0.36-0.74,0.88-0.71c2.65,0.11,5.3,0.24,7.95,0.31c0.86,0.02,1.14,0.42,1.06,1.2c-0.01,0.13,0,0.26,0,0.39
		C309.01,132.84,309.01,132.84,304.04,132.56z"/>
	<path class="st61" d="M347.8,132.58c-4.75,0.26-4.7,0.26-4.73-4.52c-0.01-1.28,0.25-1.85,1.66-1.84c2.33,0.01,4.66-0.13,6.98-0.31
		c1.04-0.08,1.3,0.24,1.33,1.25C353.22,132.28,353.26,132.28,347.8,132.58z"/>
	<path class="st61" d="M151.9,125.22c0-3.22,0-3.23,3.18-3.74c1.79-0.29,3.58-0.53,5.37-0.83c0.94-0.16,1.36-0.01,1.41,1.12
		c0.23,5.13,0.27,5.12-4.77,5.83c-1.09,0.15-2.22,0.2-3.25,0.53c-1.79,0.57-2.15-0.2-1.94-1.75C151.95,126,151.9,125.6,151.9,125.22
		z"/>
	<path class="st61" d="M161.83,28.9c0,3.08,0,3.09-3.08,3.49c-1.87,0.24-3.75,0.4-5.61,0.67c-0.96,0.14-1.21-0.17-1.26-1.12
		c-0.29-5.09-0.32-5.09,4.81-5.72c1.03-0.13,2.11-0.09,3.09-0.38c1.89-0.55,2.29,0.26,2.06,1.9
		C161.79,28.11,161.83,28.51,161.83,28.9z"/>
	<path class="st61" d="M215.84,30c-0.45-0.02-0.91-0.01-1.36-0.07c-1.2-0.15-3.22,0.44-3.47-0.35c-0.54-1.7-0.24-3.68-0.22-5.55
		c0.01-0.66,0.61-0.55,1.04-0.54c2.59,0.06,5.18,0.15,7.77,0.18c0.88,0.01,1.14,0.41,1.06,1.2c-0.01,0.13,0,0.26,0,0.39
		C220.77,30.26,220.77,30.26,215.84,30z"/>
	<path class="st61" d="M367.72,33.01c0,3.2,0,3.22-3.18,3.66c-1.79,0.25-3.6,0.39-5.39,0.65c-0.99,0.15-1.33-0.07-1.38-1.16
		c-0.2-5.02-0.24-5.02,4.81-5.66c1.15-0.15,2.33-0.21,3.45-0.51c1.44-0.39,1.88,0.09,1.71,1.47
		C367.67,31.97,367.72,32.5,367.72,33.01z"/>
	<path class="st61" d="M387.21,125.31c0-3.12,0-3.11,3.06-3.64c1.85-0.32,3.7-0.65,5.54-1.03c1.02-0.21,1.32,0.08,1.37,1.15
		c0.2,5.04,0.24,5.04-4.63,5.9c-1.15,0.2-2.31,0.35-3.44,0.64c-1.51,0.39-2.17-0.05-1.91-1.66
		C387.26,126.23,387.21,125.77,387.21,125.31z"/>
	<path class="st61" d="M348.27,31.83c0.91-0.05,1.85,0.05,2.71-0.18c1.92-0.52,2.09,0.38,2.06,1.97c-0.08,4.3-0.02,4.3-4.29,4.65
		c-0.26,0.02-0.52,0.03-0.78,0.05c-5.3,0.3-5.28,0.3-4.91-5.1c0.06-0.84,0.3-1.11,1.12-1.13c1.36-0.03,2.72-0.17,4.07-0.27
		C348.27,31.82,348.27,31.82,348.27,31.83z"/>
	<path class="st61" d="M107.79,138.81c0-1.93,0.02-3.67-0.01-5.41c-0.01-0.7,0.26-1.06,0.93-1.24c2.63-0.73,5.25-1.47,7.87-2.25
		c0.87-0.26,1.23-0.04,1.14,0.87c-0.01,0.13,0,0.26,0,0.39c0.13,4.81,0.13,4.82-4.48,6.12
		C111.49,137.77,109.75,138.26,107.79,138.81z"/>
	<path class="st61" d="M176.56,122.04c0,3.2,0,3.2-3.2,3.51c-1.8,0.18-3.61,0.34-5.4,0.58c-0.98,0.13-1.33-0.09-1.38-1.17
		c-0.21-5.07-0.25-5.06,4.85-5.63c0.64-0.07,1.28-0.18,1.92-0.24C176.56,118.78,176.56,118.79,176.56,122.04z"/>
	<path class="st64" d="M79.45,25.5c1.5,0.2,2.84,0.83,4.1,1.63c1.98,1.26,1.99,2.4-0.04,3.56c-2.95,1.68-6.17,2.56-9.51,3.07
		c-0.25,0.15-0.52,0.16-0.8,0.1c-0.4-1.39,0.35-2.51,1.06-3.51c0.75-1.05,1.5-2.11,2-3.26C76.93,25.53,77.86,24.96,79.45,25.5z"/>
	<path class="st65" d="M22.8,34.88c-1.61,0.05-3.13-0.46-4.68-0.79c-0.74-0.25-1.39-0.68-0.84-1.5c2.06-3.08,3.58-6.49,5.89-9.41
		c0.14-0.12,0.28-0.25,0.41-0.38c1.27-0.44,2.58-0.43,3.9-0.4c0.58,1.17-0.3,1.93-0.81,2.76c-1.5,2.4-2.83,4.92-4.41,7.27
		c-0.63,0.94-0.41,1.53,0.56,1.96C22.94,34.56,22.92,34.73,22.8,34.88z"/>
	<path class="st66" d="M29.57,39.13c-2.52-0.41-2.57,1.04-2.52,2.99c0.12,5.27,0.03,10.55,0.02,15.83c-0.95,0.45-1.74,0.3-2.32-0.63
		c0-5.57,0-11.14,0-16.72c0-0.91-0.18-1.92,1.25-1.86C27.22,38.66,28.41,38.73,29.57,39.13z"/>
	<path class="st67" d="M46.61,165.75c3.3,0.36,6.57-0.66,9.87-0.31c-6.04,0.97-12.12,0.83-18.19,0.47
		c-2.58-0.15-5.17-0.29-7.69-0.92c-0.83-0.41-0.92-1.19-0.95-1.98c-0.05-1.36-0.02-2.71-0.01-4.07c0-1.34,0.57-2.22,1.93-2.5
		c1.38-0.08,2.76-0.15,3.81,1.01c-1.1,1.86-0.74,3.9-0.66,5.88c0.07,1.71,1.53,1.42,2.65,1.53c1.58-0.09,3.1,0.45,4.68,0.38
		C43.59,165.3,45.18,164.84,46.61,165.75z"/>
	<path class="st68" d="M58.3,8.75c0.52-0.25,1.04-0.5,1.57-0.75c-0.58,0.74-0.81,1.54-0.8,2.51c0.04,5.84,0.01,11.68,0.03,17.51
		c0,0.72-0.3,1.64,0.86,1.86c-0.17,0.84-0.84,0.99-1.54,1.1c-0.51-0.01-0.96-0.14-1.21-0.64c-0.28-0.61-0.26-1.26-0.26-1.9
		c0-5.67,0-11.34,0-17.01C56.94,10.3,56.96,9.19,58.3,8.75z"/>
	<path class="st69" d="M13.44,32.93c-1.33,0.1-2.42-0.56-3.52-1.16c0.9-2.67,2.19-5.09,4.3-7.02c2.13-0.85,4.33-1.42,6.63-1.56
		c0.01,0.06,0.05,0.17,0.03,0.18c-3.49,1.83-4.53,5.57-6.64,8.48C13.98,32.22,13.8,32.64,13.44,32.93z"/>
	<path class="st70" d="M35.66,31.38c1.34,0.19,1.6-0.51,1.6-1.7c-0.04-6.45-0.02-12.9-0.02-19.35c1.21-0.71,1.8-0.15,2.07,1.03
		c0.06,0.25,0.06,0.51,0.06,0.77c0.01,6.03,0.02,12.05,0,18.08c0,0.53-0.09,1.03-0.38,1.49C37.81,32.38,36.64,32.85,35.66,31.38z"/>
	<path class="st71" d="M64.23,35.32c-1.13,0.57-2.35,0.3-3.53,0.37c-0.18,0.15-0.36,0.14-0.53-0.02c-0.2-0.94,0.46-1.57,0.85-2.3
		c1.62-3.03,3.58-5.86,5.24-8.86c0.67-1.21,1.57-1.87,3.01-1.34c1.48-0.02,2.91,0.23,4.28,0.78c-0.25,0.34-0.63,0.42-1.01,0.46
		c-2.07-0.68-3.27,0.43-4.12,2.09c-0.6,1.17-1.35,2.28-1.63,3.62c-0.29,1.42-2.06,1.8-2.38,3.27C64.28,34.04,63.63,34.6,64.23,35.32
		z"/>
	<path class="st72" d="M13.44,32.93c2.01-3.6,3-7.97,7.41-9.74c0.85-0.53,1.81-0.37,2.73-0.39c0,0.13,0,0.26,0,0.39
		c-1.11,0.46-1.82,1.28-2.43,2.32c-1.61,2.76-3.15,5.57-4.98,8.19C15.18,33.72,14.32,33.29,13.44,32.93z"/>
	<path class="st73" d="M58.67,30.58c0.43-0.23,0.85-0.47,1.28-0.7c1.16-0.34,1.38-1.27,1.39-2.29c0.03-1.42,0.05-2.85,0.01-4.27
		c-0.03-1.07,0.44-1.47,1.41-1.14c1.24,0.42,2.61-0.09,3.79,0.6c-2.5,3.22-4.45,6.79-6.44,10.33c-0.57,1.01-0.97,2.14-2.13,2.66
		c-0.51,0.15-1.03,0.1-1.55,0.07c-0.62-0.04-0.8-0.46-0.55-0.95c0.67-1.31,0.97-2.81,2.1-3.87C58.21,30.86,58.49,30.79,58.67,30.58z
		"/>
	<path class="st74" d="M72.35,23.98c0.4-0.01,0.81-0.02,1.21-0.02c0.56,0,1.13-0.05,1.59,0.37c-1.96,2.67-3.39,5.68-5.41,8.31
		c-0.75,0.98-0.22,1.18,0.73,1c0.39-0.02,0.77,0.01,1.14,0.14c0.19,0.08,0.34,0.2,0.44,0.37c-1.52,0.55-3.09,0.79-4.7,0.76
		c-0.62,0.27-1.26,0.19-2.03,0.05c-0.04-0.86,0.26-1.62,0.75-2.3c1.79-2.48,3.18-5.22,4.87-7.76
		C71.33,24.33,71.89,24.29,72.35,23.98z"/>
	<path class="st75" d="M22.8,34.49c-1.98-0.16-2.12-0.35-1.15-1.96c1.62-2.69,3.32-5.33,4.95-8.01c0.39-0.65,0.83-1.31,0.89-2.12
		c0.96-0.5,1.6-0.49,1.57,0.87c-0.04,1.35,0.05,2.71-0.02,4.05c-0.05,0.96,0.22,1.76,0.8,2.49c-0.94,0.47-1.25-0.18-1.54-0.86
		c-0.2-0.94-0.03-1.9-0.11-2.56C26.56,29.03,25.35,32.19,22.8,34.49z"/>
	<path class="st76" d="M57.92,35.66c1.82-3.04,3.54-6.15,5.5-9.1c0.89-1.35,1.18-3.3,3.15-3.78c0.92,0.06,1.87-0.16,2.72,0.4
		c-1.03-0.06-1.84,0.2-2.41,1.2c-2.17,3.77-4.4,7.5-6.61,11.25C59.49,36,58.7,35.94,57.92,35.66z"/>
	<path class="st77" d="M31.81,156.82c-1.22,0.3-1.79,0.97-1.61,2.32c0.26,1.94-0.38,3.94,0.41,5.85c-0.81,0.1-1.6,0.05-2.34-0.37
		c-1.24-0.12-1.83-0.83-1.73-2.04c0.18-2.31-0.67-4.73,0.68-6.92C28.94,155.27,30.55,155.33,31.81,156.82z"/>
	<path class="st78" d="M72.35,23.98c-1.03,2.05-3.04,3.44-3.71,5.83c-0.18,0.63-0.86,1.82-1.62,2.45c-0.82,0.67-1.09,1.53-1.34,2.57
		c0.56,0.03,1.12,0.06,1.67,0.09c-0.98,0.55-2.07,0.34-3.12,0.41c-0.49-0.3-1.67-0.04-0.66-1.35c0.57-0.74,0.9-1.95,1.58-2.51
		c1.83-1.54,1.8-3.98,3.15-5.73C69.39,24.31,70.42,23.21,72.35,23.98z"/>
	<path class="st79" d="M35.66,31.38c0.97,0.72,2.09,0.25,3.14,0.37c0.18-0.11,0.34-0.09,0.48,0.08c0.03,0.19-0.03,0.36-0.17,0.5
		c-0.45,0.29-0.96,0.27-1.47,0.3c-2.16,0.14-3.1,1.33-2.74,3.43c-1.97,0.09-3.92-0.07-5.85-0.41c-0.16-0.1-0.4-0.2-0.44-0.36
		c-0.52-1.84,2.03-4.61,3.96-4.31C33.59,31.12,34.63,31.25,35.66,31.38z"/>
	<path class="st80" d="M39.17,31.78c-0.13,0-0.25-0.01-0.37-0.02c0-6.57-0.02-13.15,0.02-19.72c0.01-1.18-0.23-1.9-1.58-1.7
		c-0.13-0.12-0.26-0.25-0.39-0.37c0.57-0.6,1.29-0.53,2.01-0.42c0.61,0.17,1.16,0.43,1.45,1.05c0.3,0.74,0.24,1.52,0.24,2.3
		c0,5.42,0.01,10.85,0,16.27c0,0.83,0.11,1.69-0.36,2.46C39.89,31.98,39.55,32.01,39.17,31.78z"/>
	<path class="st81" d="M71.58,34.08c-0.39,0.01-0.78,0.01-1.17,0.02c-0.25-0.85,0.19-1.64,0.57-2.23c1.42-2.18,2.5-4.57,4.07-6.65
		c0.43-0.57,0.98-0.79,1.67-0.49c0.98,0.01,1.9,0.25,2.74,0.78c-2.64-0.45-2.68,2.06-3.68,3.36c-1.11,1.45-2.08,3.05-2.63,4.84
		C72.69,34.14,72.03,33.68,71.58,34.08z"/>
	<path class="st82" d="M57.92,35.66c0.78-0.01,1.57-0.03,2.35-0.04c0.15,0.02,0.29,0.05,0.44,0.07c-1.78,0.66-3.64,0.28-5.46,0.39
		c-1.01,0.33-2.06,0.07-3.08,0.16c-1.17-0.16-1.77-0.59-0.76-1.7c0.88-0.97,0.96-2.62,2.52-3.02c0.43-0.18,0.88-0.31,1.32-0.45
		c0.55-0.15,1.1-0.27,1.66-0.38c0.47,0.06,0.97,0.04,1.4,0.29c-0.55,1-1.15,1.97-1.63,3C55.91,35.59,55.94,35.61,57.92,35.66z"/>
	<path class="st83" d="M32.56,30.98c-1.77,0.15-3.83,2.88-3.51,4.67c-1.07,0.11-2.1-0.08-3.12-0.38c-0.37-0.29-1.26-0.33-0.93-0.98
		c1.02-2,1.49-4.38,3.66-5.64c0.04,0.74,0.43,1.14,1.18,1.16C30.74,30.2,31.65,30.59,32.56,30.98z"/>
	<path class="st84" d="M27.48,155.72c-0.81,2.56-0.22,5.18-0.36,7.77c-0.04,0.78,0.88,0.64,1.15,1.13
		c-1.22,0.05-2.39-0.22-3.52-0.65c0-2.25,0.01-4.51,0.01-6.76c0-0.78-0.07-1.58,0.85-1.96C26.4,154.73,26.99,155.01,27.48,155.72z"
		/>
	<path class="st85" d="M34.9,36.06c-0.12-0.49-1.42-0.31-0.75-1.18c0.73-0.94,0.63-2.63,2.33-2.71c0.9-0.04,1.81-0.01,2.72-0.02
		c0.33-0.26,0.7-0.19,1.07-0.13c-0.08,1.33-1.38,2.07-1.64,3.34c0.67,0.33,1.38,0.16,2.07,0.18c0.72-0.03,1.45-0.03,2.17-0.03
		c1.02,0.19,2.34-0.56,2.96,0.92C42.18,36.38,38.52,36.71,34.9,36.06z"/>
	<path class="st86" d="M28.65,28.65c-1.32,1.58-1.98,3.55-3.13,5.22c-0.54,0.79,0.13,0.98,0.4,1.4c-1.07,0.1-2.1-0.09-3.12-0.39
		c0-0.13,0-0.26,0-0.39c1.81-3.03,3.84-5.93,5.65-9.66C28.54,26.49,28.6,27.57,28.65,28.65z"/>
	<path class="st87" d="M45.82,36.43c-0.96-0.75-2.08-0.21-3.12-0.38c-0.69-1.87,1.19-2.47,1.82-3.69c0.31-0.21,0.64-0.37,0.99-0.5
		c0.27-0.09,0.55-0.14,0.84-0.16c0.48-0.03,0.96-0.04,1.44-0.01c0.39,0.03,0.76,0.11,1.07,0.37c0.05,1.32-1.25,2.14-1.15,3.48
		c1.25,0.09,2.67-0.14,3.97,0.51c1.19,0.01,2.38,0.02,3.57,0.04C52.12,36.81,48.96,36.29,45.82,36.43z"/>
	<path class="st80" d="M14.22,24.75c-1.43,2.34-2.86,4.68-4.3,7.02c-0.57,0.05-1.07-0.13-1.56-0.4c-0.73-0.46-1.12-0.9-0.46-1.81
		c1.01-1.39,1.26-3.36,3.19-4.03C12.1,25.1,13.09,24.66,14.22,24.75z"/>
	<path class="st88" d="M76.71,24.72c-2.19,0.68-2.5,2.92-3.62,4.46c-1.08,1.5-1.81,3.26-2.69,4.91c-0.55-0.16-1.11,0.4-1.64,0.04
		c-0.2-0.39-0.01-0.69,0.15-0.95c1.76-2.76,3.54-5.51,5.3-8.27c0.23-0.37,0.53-0.54,0.94-0.59C75.71,24.32,76.27,24.29,76.71,24.72z
		"/>
	<path class="st89" d="M16.17,33.71c1.13-3.61,3.74-6.42,5.36-9.76c0.39-0.8,1.26-0.8,2.05-0.75c-2.16,2.96-3.54,6.41-5.82,9.3
		c-0.55,0.69-0.14,1.16,0.36,1.61C17.47,33.97,16.82,33.84,16.17,33.71z"/>
	<path class="st90" d="M11.1,25.53c-1.59,1.21-1.94,3.28-3.22,4.71c-0.36,0.4,0.43,0.7,0.49,1.13c-0.89,0.01-1.31-0.75-1.9-1.2
		c-1.04-0.78-1.09-1.74-0.01-2.52C7.86,26.66,9.32,25.73,11.1,25.53z"/>
	<path class="st91" d="M38.79,9.98c-0.65-0.01-1.29-0.01-1.94-0.02c-0.39-0.14-0.78-0.28-1.16-0.42c-0.46-0.57-0.14-1.04,0.19-1.51
		c0.14-0.12,0.3-0.19,0.49-0.22c0.78,0.11,1.59,0.08,2.28,0.55c0.13,0.12,0.23,0.25,0.31,0.41C39.04,9.2,39.11,9.62,38.79,9.98z"/>
	<path class="st92" d="M32.93,8.82c0.33-1.08,0.48-2.24,1.24-3.15c0.49,0.51,0.78,1.12,0.86,1.83c-0.33,0.55-0.64,1.11-0.91,1.68
		C33.68,9.19,33.24,9.2,32.93,8.82z"/>
	<path class="st93" d="M34.12,9.18c-0.34-0.82-0.19-1.4,0.79-1.57c0.47-0.06,0.9,0,1.18,0.45c-0.13,0.5-0.27,0.99-0.4,1.49
		C35.11,9.64,34.6,9.44,34.12,9.18z"/>
	<path class="st57" d="M64.53,164.25c0.38-0.54,1.1-0.43,1.57-0.8c0.13-0.13,0.26-0.14,0.39,0c0,0.14,0.01,0.29,0.01,0.43
		C65.89,164.22,65.23,164.32,64.53,164.25z"/>
	<path class="st88" d="M71.58,34.08c0.42-0.54,1.03-0.31,1.56-0.38c0.29,0.01,0.57,0.03,0.86,0.05c-0.58,0.46-1.27,0.36-1.94,0.4
		C71.9,34.13,71.74,34.1,71.58,34.08z"/>
	<path class="st94" d="M231.98,169.78c1.01-3.28,2.21-6.44,4.99-8.71c-0.92,2.93-2.55,5.5-4.04,8.15
		C232.74,169.58,232.42,169.79,231.98,169.78z"/>
	<path class="st95" d="M221.39,170.16c0.24-2.03,1.55-3.58,2.42-5.32c0.63-1.26,0.98-2.83,2.59-3.38
		C225.25,164.66,224.1,167.85,221.39,170.16z"/>
	<path class="st96" d="M131.63,171.63c-0.33-0.19-0.36-0.53-0.41-0.85c0.72-3.99,2.87-7.29,5.13-10.53c0.41-0.58,1.17-1,1.89-0.61
		c0.86,0.46,0.04,1.14,0.04,1.72c-1.6,1.86-2.59,4.09-3.69,6.25c-0.46,0.92-0.9,1.84-1.72,2.51
		C132.46,170.62,132.05,171.12,131.63,171.63z"/>
	<path class="st97" d="M132.87,170.11c1.12-2.65,2.52-5.16,3.96-7.64c0.32-0.55,0.69-1.1,1.45-1.12c-0.89,2.79-2.4,5.28-3.9,7.75
		C134.06,169.63,133.69,170.25,132.87,170.11z"/>
	<path class="st98" d="M143.15,170.49c1-2.96,2.59-5.63,4.16-8.31c0.27-0.46,0.56-0.9,1.21-0.66c-0.93,2.7-2.38,5.14-3.81,7.59
		C144.36,169.72,143.89,170.29,143.15,170.49z"/>
	<path class="st17" d="M329.88,169.17c-1.08,0.28-1.59-0.37-1.38-1.23c0.97-3.9,2.84-7.3,6.06-9.82c0.42-0.33,1.02-0.7,1.58-0.17
		c0.57,0.54,0.17,1.05-0.1,1.56c-2.34,2.43-4.2,5.17-5.39,8.33C330.46,168.34,330.19,168.76,329.88,169.17z"/>
	<path class="st99" d="M329.88,169.17c0.98-3.9,2.61-7.39,6.16-9.66c-0.77,3.04-2.38,5.65-4.22,8.14
		C331.32,168.34,330.77,168.99,329.88,169.17z"/>
	<path class="st100" d="M185.35,163.88c-1.08,0.63-1.56,0.05-1.4-0.91c0.4-2.34,1.3-4.49,3.27-5.99c0.45-0.35,1.02-0.69,1.62-0.33
		c0.73,0.44,0.52,1.09,0.26,1.71c-1.26,1.15-2.29,2.44-2.82,4.1C186.1,163.01,185.9,163.56,185.35,163.88z"/>
	<path class="st29" d="M175.59,178.01c-1.06-0.17-1.4-0.79-1.13-1.79c0.24-0.92,0.87-1.27,1.75-1.05c1.35,0.34,2.68,0.03,4.02,0.01
		c1.06-0.01,1.8,0.28,0.68,1.4c-0.6,0.57-1.36,0.74-2.12,0.59C177.55,176.93,176.55,177.35,175.59,178.01z"/>
	<path class="st101" d="M185.35,163.88c0.25-1.7,1.03-3.18,2.03-4.54c0.4-0.54,0.82-1.23,1.71-0.99
		C188.39,160.57,187.82,162.87,185.35,163.88z"/>
	<path class="st102" d="M175.59,178.01c0.26-1.26,0.9-1.89,2.29-1.49c0.99,0.28,2.01,0.16,3.03,0.05
		C179.69,178.31,177.93,178.79,175.59,178.01z"/>
	<path class="st103" d="M181.71,168.54c1.13,0.11,2.32-0.34,3.4,0.31c-1.3,0.17-2.58,0.57-3.92,0.42
		C181.36,169.03,181.53,168.78,181.71,168.54z"/>
	<path class="st104" d="M369.75,169.03c-1.22,0.49-1.39-0.38-1.29-1.16c0.43-3.22,1.56-6.21,3.49-8.84
		c0.41-0.56,1.05-1.07,1.81-0.86c0.71,0.19,0.66,0.85,0.53,1.45C372,162.37,371.21,165.86,369.75,169.03z"/>
	<path class="st105" d="M369.75,169.03c0.36-2.85,1.53-5.42,2.86-7.92c0.36-0.67,0.9-1.26,1.69-1.5c-0.32,3.16-1.67,5.93-3.3,8.59
		C370.72,168.66,370.3,168.94,369.75,169.03z"/>
	<path class="st106" d="M165.11,166c0.01,0.44-2.39,3.66-2.96,3.78c-0.58,0.13-0.82-0.17-0.9-0.71c-0.18-1.26,1.83-3.75,3.1-3.84
		C164.83,165.2,165.11,165.31,165.11,166z"/>
	<path class="st107" d="M163.81,162.29c1.77-1.07,3.03-2.79,4.87-3.76C167.55,162.12,167.23,162.37,163.81,162.29z"/>
	<path class="st46" d="M153.98,170.49c-0.19-0.03-0.37-0.05-0.56-0.08c-0.05-0.63,0.13-1.11,0.83-1.25
		C154.32,169.64,154.29,170.09,153.98,170.49z"/>
	<path class="st108" d="M354.52,160.7c-0.54-0.04-1.23,0.34-1.55-0.34c-0.27-0.6,0.24-1.08,0.56-1.55c0.47-0.71,1.13-1.22,1.89-1.58
		c0.46-0.22,0.96-0.45,1.44-0.03c0.63,0.54,0.18,1.02-0.1,1.51C356.19,159.57,355.4,160.19,354.52,160.7z"/>
	<path class="st109" d="M354.52,160.7c0.5-0.94,1.04-1.83,2.24-1.99C356.85,160.31,355.99,160.84,354.52,160.7z"/>
	<path class="st110" d="M265.64,160.7c-0.54-0.02-1.23,0.33-1.56-0.32c-0.31-0.61,0.27-1.05,0.57-1.52
		c0.46-0.71,1.08-1.27,1.86-1.61c1.13-0.49,1.92-0.38,1.7,1.15C267.44,159.27,266.63,160.09,265.64,160.7z"/>
	<path class="st111" d="M265.64,160.7c0.52-1.14,1.35-1.93,2.57-2.3C268.03,159.93,267.41,160.96,265.64,160.7z"/>
	<path class="st112" d="M206.14,160.71c-0.55-0.04-1.26,0.31-1.59-0.3c-0.35-0.66,0.23-1.21,0.64-1.66c0.51-0.56,1.1-1.05,1.72-1.49
		c0.41-0.29,0.92-0.45,1.43-0.11c0.68,0.45,0.31,0.99,0.14,1.52C207.69,159.35,206.94,160.07,206.14,160.71z"/>
	<path class="st113" d="M206.14,160.71c0.53-0.97,0.94-2.06,2.34-2.04C208.29,160.04,207.68,160.91,206.14,160.71z"/>
	<path class="st114" d="M50.9,3.67c0.25,0.03,0.51,0.05,0.76,0.08c1.42,0.54,2.85,1.07,4.27,1.61c0.73,1.16,0.11,1.8-0.9,2.25
		c-1.55,0.7-3.16,1.14-4.86,1.22c-0.96,0.14-1.92,0.73-2.89,0.03c-0.73-1.7-0.69-3.4-0.04-5.1c0.83-0.39,1.67-0.28,2.52-0.08
		C50.14,3.67,50.52,3.67,50.9,3.67z"/>
	<path class="st115" d="M51.74,10c0.5-0.01,1-0.02,1.5-0.03c0.12,0.23,0.13,0.46,0.03,0.7c-0.35,0.81-0.26,1.66-0.26,2.5
		c-0.01,5.32,0,10.64-0.01,15.96c0,0.89,0.15,1.83-0.42,2.64c-0.47,0.34-0.94,0.34-1.41,0.01c-0.42-0.55-0.48-1.2-0.48-1.85
		c-0.03-5.96-0.04-11.92,0-17.88c0-0.45,0.06-0.91,0.22-1.34C51.07,10.35,51.35,10.1,51.74,10z"/>
	<path class="st116" d="M58.3,8.75c-0.75,0.58-0.79,1.38-0.79,2.25c0.03,6.53,0.02,13.06,0.02,19.59c-1.16,0.53-1.55-0.14-1.66-1.11
		c-0.14-1.22-0.06-2.45-0.06-3.68c0-4.72-0.01-9.43,0-14.15c0-1.07,0.04-2.11,1.32-2.5C57.46,8.84,57.86,8.74,58.3,8.75z"/>
	<path class="st117" d="M56.78,31.01c-0.44,0.51-1.04,0.33-1.58,0.38c-0.5,0.23-0.98,0.31-1.4-0.17c-0.41-0.71-0.32-1.5-0.33-2.27
		c-0.01-5.49-0.01-10.97,0-16.46c0-0.9-0.06-1.82,0.53-2.6c0.59-0.41,1.28-0.37,1.95-0.42c0.24,0.37-0.03,0.64-0.19,0.92
		c-0.39,0.49-0.4,1.07-0.4,1.65c-0.01,5.6-0.01,11.2,0,16.8c0,0.52,0.01,1.04,0.39,1.45C56.03,30.62,56.47,30.73,56.78,31.01z"/>
	<path class="st118" d="M56.78,31.01c-0.4-0.01-0.8-0.02-1.2-0.03c-0.42-0.49-0.39-1.08-0.39-1.67c-0.01-5.9-0.01-11.8,0-17.71
		c0-0.58-0.03-1.18,0.39-1.66c0.12-0.16,0.24-0.32,0.36-0.48c0.35-0.29,0.76-0.35,1.19-0.32c-0.66,0.53-0.79,1.23-0.79,2.06
		c0.03,5.9,0.01,11.79,0.02,17.69c0,0.83-0.19,1.81,1.18,1.69c0.38,0,0.76-0.01,1.14-0.01c-0.12,0.13-0.24,0.26-0.36,0.39
		C57.8,30.98,57.29,31,56.78,31.01z"/>
	<path class="st119" d="M53.99,9.89c0.01,7.16,0.02,14.32,0.02,21.48c-1.45,0.26-1.14-0.86-1.15-1.58
		c-0.05-3.42-0.02-6.84-0.02-10.26c0-2.39-0.01-4.77,0.01-7.16c0-0.7-0.12-1.43,0.38-2.05c0-0.12,0-0.24,0.01-0.36
		C53.49,9.95,53.74,9.92,53.99,9.89z"/>
	<path class="st120" d="M47.4,8.72c0.92,0.03,1.85,0.07,2.77,0.1c-0.28,0.12-0.56,0.25-0.84,0.37c-0.55,0.2-1.11,0.38-1.69,0.48
		c-1.18-0.05-2.42,0.31-3.51-0.46c-0.5-2.02-1.19-4.06,0.54-5.87c1.04-0.03,2.08-0.07,3.11-0.1c0.65,0.19,1.38,0,1.98,0.43
		c-0.79,0.02-1.58,0.03-2.38,0.05C46.41,5.39,46.34,7.06,47.4,8.72z"/>
	<path class="st121" d="M51.74,10c-0.15,0.11-0.31,0.23-0.46,0.34c-0.57,0.51-1.26,0.54-1.97,0.53c-1.25-0.04-2.52,0.1-3.76-0.15
		c-0.53-0.18-1.07-0.35-1.34-0.99c0.51-0.65,1.23-0.26,1.85-0.35c0.79,0.36,1.77-0.1,2.5,0.56C49.62,9.96,50.68,9.98,51.74,10z"/>
	<path class="st122" d="M48.56,9.94c-0.78-0.11-1.65,0.31-2.34-0.37c0.45-0.43,1.08-0.01,1.55-0.34c0.52-0.01,1.04-0.02,1.56-0.04
		C49.08,9.44,48.82,9.69,48.56,9.94z"/>
	<path class="st123" d="M38.74,8.71c-0.68-0.54-1.67-0.02-2.32-0.68c0.94-1.02,0.56-2.35,0.81-3.54c0-0.12,0.01-0.25,0.01-0.37
		c0.14-0.02,0.28-0.05,0.42-0.07c0.78,0.07,1.43-0.8,2.27-0.32l0,0c0.92,1.19,0.64,2.55,0.46,3.86C40.28,8.49,39.67,8.89,38.74,8.71
		z"/>
	<path class="st124" d="M37.24,4.49c0.26,1.3,1.5,2.83-0.81,3.53c0,0-0.17-0.01-0.17-0.01s-0.17,0.03-0.17,0.03
		c-0.42-0.09-0.9,0.01-1.18-0.45c-0.34-0.61-1-1.1-0.73-1.94C35.17,5.21,36.04,4.43,37.24,4.49z"/>
	<path class="st47" d="M38.74,8.71c0.96-0.35,1.38-0.98,1.25-2.06c-0.12-0.96-0.04-1.94-0.05-2.92c1.09-0.15,1.69,0.17,1.61,1.42
		c-0.08,1.2-0.02,2.41-0.02,3.62c-0.19,0.36-0.52,0.54-0.9,0.64c-0.7,0.07-1.32-0.1-1.82-0.62L38.74,8.71z"/>
	<path class="st125" d="M40.75,9.17c0.16-0.32,0.46-0.37,0.78-0.4c0.26,0,0.52,0.01,0.79,0.01c0.21-0.22,0.47-0.28,0.76-0.25
		c0.48,0.06,0.87,0.31,1.24,0.59c1.15,0.04,2.31,0.08,3.46,0.12c-0.44,0.49-1.03,0.27-1.55,0.34c-0.52,0-1.03,0-1.57,0
		c0.02,0.56,0.67,0.34,0.79,0.72c-0.62,0.69-1.4,0.53-2.18,0.43C42.39,10.26,40.98,10.66,40.75,9.17z"/>
	<path class="st126" d="M43.07,8.81c-0.25-0.01-0.5-0.02-0.76-0.03c0-1.35,0-2.7,0-4.05c0-0.72-0.04-1.44,0.8-1.79
		c0,0.12-0.01,0.24-0.01,0.35C43.94,5.14,44.05,6.97,43.07,8.81z"/>
	<path class="st47" d="M39.94,3.74c-0.75,0.13-1.47,0.5-2.27,0.32c0.59-0.38,1.29-0.65,1.49-1.43c0.47,0.02,1.08-0.32,1.36,0.25
		C40.71,3.27,40.06,3.39,39.94,3.74z"/>
	<path class="st31" d="M43.07,8.81c0.01-1.84,0.02-3.67,0.03-5.51c0.52,0.02,1.05,0.03,1.57,0.05c-0.8,1.88-0.28,3.84-0.36,5.77
		C43.85,9.19,43.4,9.25,43.07,8.81z"/>
	<path class="st90" d="M395.48,144.56c0.92,1.2,1.82,2.21,2.36,3.57c-1.16,0.5-1.98,0.29-2.53-0.85c-0.14-0.29-0.36-0.53-0.56-0.79
		c-0.57-0.75-0.99-1.97-2.14-1.62c-1.02,0.31-0.37,1.45-0.47,2.21c-0.09,0.66,0.02,1.31-0.98,1.29c-0.9-0.02-0.84-0.59-0.84-1.18
		c0-2.07-0.01-4.14,0.01-6.21c0-0.49-0.15-1.19,0.59-1.21c1.74-0.04,3.51-0.33,5.2,0.28c0.87,0.32,1.24,1.07,1.28,1.99
		C397.46,143.35,396.72,144.06,395.48,144.56z"/>
	<path class="st5" d="M109.79,72.22c0-2.59-0.01-5.19,0.01-7.78c0-0.49-0.19-1.18,0.42-1.38c2.08-0.67,4.07-1.81,6.36-1.51
		c1.53,0.2,2.28,1.39,2.84,2.68c3.02,6.89-1.54,15.44-8.92,16.86c-1.22,0.23-0.94-0.5-0.95-1.09c-0.02-2.59-0.01-5.19-0.01-7.78
		C109.63,72.22,109.71,72.22,109.79,72.22z"/>
	<path class="st5" d="M386.44,75.2c-0.12,3.87-0.43,8.12-2.55,12c-0.28,0.51-0.57,1.02-0.95,1.46c-0.95,1.13-2.06,2.07-3.68,1.58
		c-1.66-0.5-2.01-1.96-2.01-3.42c0.01-5.37,0.06-10.75,0.18-16.12c0.04-1.63,3.31-5.06,4.95-5.35c1.59-0.28,2.39,0.74,2.95,1.99
		C386.4,69.71,386.43,72.25,386.44,75.2z"/>
	<path class="st5" d="M353.7,86.19c-0.06,2.48-0.21,4.94-0.81,7.35c-0.4,1.59-1.08,3.07-2.21,4.28c-1.7,1.83-3.96,1.73-5.57-0.19
		c-0.94-1.12-1.48-2.46-1.83-3.84c-1.36-5.29-1.52-10.65-0.51-16.02c0.33-1.74,1.01-3.35,2.19-4.71c1.86-2.15,4.19-2.09,5.9,0.19
		c1.49,1.99,2.04,4.34,2.35,6.73C353.47,82.04,353.54,84.12,353.7,86.19z"/>
	<path class="st5" d="M189.53,77.6c-0.17,3.92-0.21,7.96-2.37,11.56c-0.94,1.57-2.1,2.9-4.14,2.69c-2-0.2-3.1-1.66-3.61-3.39
		c-1.91-6.52-1.71-13.03,0.56-19.45c0.15-0.42,0.41-0.81,0.65-1.19c2.21-3.53,5.35-3.45,7.3,0.21
		C189.49,71,189.43,74.27,189.53,77.6z"/>
	<path class="st5" d="M248.69,79.34c-0.12,2.92-0.2,6.37-1.52,9.61c-0.86,2.12-1.86,4.28-4.62,4.36c-1.94,0.06-3.69-1.8-4.32-4.85
		c-1.22-5.93-1.04-11.86,0.78-17.66c0.67-2.14,1.84-4.27,4.45-4.27c2.58,0,3.47,2.22,4.22,4.24
		C248.64,73.36,248.72,76.1,248.69,79.34z"/>
	<path class="st6" d="M27.48,155.72c-0.61-0.23-1.2-0.54-1.88-0.48c-2.24-0.87-2.91-3.43-1.57-5.98c1.11-0.25,2.12,0.2,3.16,0.45
		c0.93,0.25,1.87,0.47,2.8,0.72c0.84,0.18,1.66,0.42,2.5,0.6c1.93,0.52,4,0.44,5.82,1.19c-1.27-0.98-2.56-2.08-3.95-3.06
		c-1.46-0.8-2.26-2.3-3.54-3.29c-1.01-0.71-1.9-1.55-2.76-2.43c-0.84-0.99-1.98-1.71-2.55-2.94c-2.9-2.16-1.95-5.29-1.95-8.12
		c0-1.52,0.78-0.01,1.18-0.1c1.16,0.36,1.72,1.45,2.61,2.15c0.99,0.99,1.96,2,2.99,2.95c0.39,0.33,0.84,0.59,1.23,0.92
		c0.67,0.64,1.31,1.31,1.99,1.95c0.53,0.55,1.06,1.09,1.72,1.49c1.67,2.13,3.63,2.21,5.79,0.8c0.41-0.16,0.84-0.29,1.24-0.47
		c1.14-0.49,2.36-0.83,3.38-1.58c3.82-1.51,7.07-4.05,10.73-5.86c1.07-0.68,2.13-1.36,3.49-2.23c0,2.2-0.01,4.16,0.01,6.11
		c0.01,0.69-0.46,1.01-0.94,1.35c-1.14,0.82-2.29,1.64-3.43,2.47c-2.18,2.23-5.05,3.34-7.77,4.66c-0.81,0.4-1.66,0.74-2.5,1.08
		c-1.19,0.47-0.94,0.91-0.12,1.58c2.4,1.98,4.91,3.21,8.18,2.2c1.77-0.55,3.73-0.25,5.51-0.97c0.41-0.17,1.14-0.2,1.12,0.35
		c-0.06,1.74,0.75,3.58-0.5,5.2c-4.03,0.63-8.06,1.27-12.08,1.9c-1.67,0.91-3.45,0.67-5.22,0.5c-1.31-0.36-2.67-0.19-3.99-0.43
		c-0.88-0.41-2.01,0.01-2.75-0.85c-1.16-0.46-2.36-0.66-3.6-0.74C30.42,156.24,28.94,156.01,27.48,155.72z"/>
	<path class="st6" d="M54.8,90.2c1.14-0.19,2.31-0.29,3.41-0.59c1.21-0.33,1.75-0.21,1.74,1.26c-0.02,2.91,0.06,2.91-3.2,4.1
		c0.01,0.42,0.41,0.35,0.63,0.47c3.09,1.58,3.96,4.15,2.45,7.29c-0.98,2.03-2.6,3.51-4.28,4.94c-1.79,1.79-4.1,2.38-6.48,2.83
		c-2.95,0.2-5.9,0.35-8.75-0.69c-1.41-0.51-2.77-1.13-3.94-2.09c-0.23-0.18-0.44-0.38-0.65-0.59c-1.59-1.46-2.83-3.14-3.25-5.31
		c-0.05-0.56-0.05-1.13-0.03-1.69c0.02-1.57,0.91-2.7,2.03-3.69c-0.64-0.64-1.39-0.56-2-0.84c-0.61-0.22-1.26-0.23-1.88-0.39
		c-1-0.28-2.02-0.49-3.02-0.77c-0.45-0.17-0.92-0.31-1.2-0.75c-0.16-0.1-0.32-0.22-0.49-0.29c-0.79-0.33-2.08-0.1-2.27-1.13
		c-0.26-1.43-0.29-2.94,0.07-4.39c0.03-0.1,0.46-0.11,0.71-0.16c1.02-0.27,1.94,0.19,2.89,0.38c1.15,0.24,2.28,0.59,3.43,0.83
		c1.07,0.24,2.1,0.6,3.19,0.75c0.83,0.12,1.63,0.42,2.48,0.4c4.01,0.56,8.01,1.16,12.07,0.53C50.59,90.59,52.65,89.76,54.8,90.2z"/>
	<path class="st6" d="M24.75,57.32c0.77,0.21,1.54,0.42,2.32,0.63c1.24,0.59,2.55,0.93,3.93,1.02c0.98,0.47,2.06,0.53,3.12,0.7
		c2.57-0.49,5.01,0.61,7.33,0.55c0.45,0.14,0.24-0.36,0.27-0.1c0.01,0.1-0.05,0.14-0.17,0.08c-2.15-1.02-4.1-2.29-5.5-4.28
		c-3.3-2.04-2.88-5.13-2.34-8.26c1.14-0.09,1.59,1.02,2.46,1.4c1.02,0.95,2.19,1.74,3.24,2.66c0.94,0.64,1.73,1.46,2.7,2.06
		c0.74,0.69,1.53,0.81,2.45,0.32c0.9-0.48,1.91-0.73,2.8-1.24c3.18-1.29,5.93-3.42,9.13-4.69c1.03-0.61,2.07-1.21,3.42-2
		c0,1.74,0,3.23,0,4.73c0,0.89-0.76,1.11-1.3,1.52c-0.88,0.64-1.76,1.27-2.65,1.9c-1.89,1.81-4.3,2.8-6.65,4.15
		c1.15,1.14,2.38,1.66,3.87,1.25c1.06-0.29,2.15-0.07,3.21-0.27c0.06,0,0.13,0.02,0.19,0.01c3.48-0.47,3.44-0.47,3.35,3.03
		c-0.02,1.03-0.33,1.52-1.37,1.67c-1.01,0.15-1.99,0.48-2.99,0.73c-1.45,1.05-3.23,0.78-4.84,1.21c-2.76-0.11-5.48,0.88-8.26,0.39
		c-2.04-0.5-4.18-0.16-6.21-0.73c-0.81-0.17-1.63-0.34-2.44-0.5c-0.67-0.21-1.38-0.26-2.06-0.42c-1.43-0.41-2.89-0.72-4.33-1.08
		c-0.66-0.23-1.41-0.25-1.87-0.9c-0.57-0.59-1.88-0.19-1.99-1.24c-0.14-1.33-0.1-2.7,0.03-4.04C23.67,56.91,24.36,57.42,24.75,57.32
		z"/>
	<path class="st127" d="M26.38,93.68c0.43-0.01,0.85,0.04,1.2,0.35c0.27,1.09,0.15,2.19,0.15,3.28c0,11.38,0.01,22.77-0.01,34.15
		c0,1.07,0.22,2.22-0.62,3.14c-0.94-0.62-1.66-1.46-2.35-2.32c0-12.18,0.01-24.36,0-36.53C24.74,94.56,24.7,93.48,26.38,93.68z"/>
	<path class="st66" d="M25.57,62.86c0.68,0,1.32,0.13,1.9,0.5c0.31,0.54,0.26,1.13,0.25,1.71c-0.02,6.88,0.01,13.76-0.02,20.64
		c0,0.95,0.16,1.97-0.61,2.77c-0.93-0.13-1.85-0.31-2.69-0.75c0.5-0.69,0.35-1.49,0.35-2.26c0.01-6.72,0.01-13.45-0.01-20.17
		C24.74,64.36,24.78,63.49,25.57,62.86z"/>
	<path class="st128" d="M25.51,140.51c1.09,0.7,1.95,1.65,2.78,2.64c-1.17,0.33-0.58,1.24-0.65,1.94c-0.15,1.68,0.49,3.45-0.55,5.03
		c-1.02-0.29-2.04-0.57-3.06-0.86c0.79-0.4,0.73-1.12,0.73-1.84c-0.02-1.81,0.01-3.63-0.01-5.44
		C24.74,141.33,24.63,140.67,25.51,140.51z"/>
	<path class="st6" d="M55.1,86.67l-0.17,0l-0.15,0.08c-2.05,1.44-4.19,1.38-6.39,0.42c-1.05-0.51-1.93-1.24-2.69-2.13
		c-0.12-0.15-0.23-0.3-0.32-0.47c-0.93-1.83-1.49-3.78-2.04-5.75c-0.22-0.79-0.39-1.62-1.01-2.23c-1.24-0.47-2.44-0.6-3.19,0.76
		c-0.66,1.19-0.15,2.92,0.99,3.81c0.55,0.43,1.3,0.62,1.64,1.32c0.26,1.38-0.25,2.6-0.76,3.82c-0.73,0.99-1.67,0.81-2.61,0.42
		c-1.01-0.42-1.95-0.99-2.84-1.64c-0.93-0.82-1.63-1.82-2.28-2.87c-1.17-3.06-1.33-6.14-0.07-9.22c0.83-1.45,2.14-2.23,3.69-2.71
		c3.61-0.24,7.22-0.03,10.83-0.11c0.96-0.02,1.94,0.1,2.88-0.19c1.95-0.21,3.87-0.64,5.82-0.8c1.2-0.1,2.05-1.07,3.19-1.33
		c0.84,3.42,0.51,4.4-2.15,6.19c1.55,1.23,3.04,2.53,3.08,4.68c0.03,1.38-0.31,2.69-0.98,3.91c-0.7,1.29-1.84,2.16-2.85,3.16
		C56.35,86.41,55.66,86.42,55.1,86.67z"/>
	<path class="st6" d="M55.58,113.99c5.69,3.2,6.56,7.66,2.57,13.24c-0.45,0.62-0.96,1.2-1.45,1.8c-1.97,2.2-4.46,3.49-7.33,4.08
		c-1.97,0.15-3.94,0.21-5.91,0.01c-0.98-0.28-2-0.47-2.96-0.84c-1.66-0.75-3.16-1.77-4.62-2.84c-0.89-0.88-1.51-1.96-2.14-3.02
		c-0.63-1.24-1.2-2.49-1.3-3.91c-0.02-0.6-0.02-1.2,0-1.79c0.05-1.34,0.75-2.45,1.32-3.61c0.54-1.13,1.72-1.54,2.6-2.3
		c0.97-0.58,2.02-0.99,3.09-1.34c4.33-1.28,8.74-1.06,13.16-0.68C53.71,112.92,54.59,113.57,55.58,113.99z"/>
	<path class="st54" d="M56.48,48.18c-2.78,2.12-5.81,3.77-9.07,5.03c-1.12,0.43-1.26-0.47-1.3-1.11c-0.22-3.68-0.16-7.37,0.08-11.05
		c0.03-0.49,0.35-0.82,0.78-1.03c2.48-0.02,4.95-0.03,7.43-0.05c1.12,0.54,1.39,1.43,1.27,2.62c-0.14,1.39-0.07,2.8-0.11,4.2
		C55.56,47.46,55.61,48.08,56.48,48.18z"/>
	<path class="st129" d="M59.45,156.43c0.93-1.57,0.37-3.28,0.38-4.92c0.01-0.84-0.77-0.42-1.2-0.3c-2.51,0.64-5.05,1.08-7.62,1.47
		c-1.48,0.23-2.61-0.02-3.75-0.93c-1.3-1.05-2.71-1.96-4.4-3.17c4.61-1.81,8.68-3.97,12.68-6.24c0.01,2.46,0.05,4.93,0.02,7.39
		c-0.02,1.2,0.15,1.98,1.62,1.32c0.35-0.16,0.76-0.14,1.13-0.27c1.44-0.5,2.14-0.04,1.94,1.51c-0.17,1.38,0.44,2.84-0.38,4.16
		C59.73,156.45,59.59,156.44,59.45,156.43z"/>
	<path class="st129" d="M49.7,132.59c2.56-0.75,4.93-1.85,7-3.56c-0.81,1.4-2.5,2.37-1.94,4.44c0.27,0.99,0.59,1.48,1.65,1.18
		c-3.19,2.61-6.77,4.57-10.52,6.24c-1.23,0.42-1.28-0.55-1.37-1.27c-0.18-1.4-0.14-2.82-0.05-4.23c0.12-1.94,0.71-2.43,2.64-2.53
		C47.97,132.81,48.9,133.19,49.7,132.59z"/>
	<path class="st54" d="M56.43,69.2c-1.7,0.9-3.54,1.17-5.44,1.18c-1.97,0.29-3.94,0.15-5.91,0.07c-0.83-0.86-0.63-1.92-0.53-2.94
		c0.07-0.81,0.52-1.13,1.38-1.3c1.64-0.32,3.34-0.14,4.96-0.6c1.54-0.4,3.1-0.66,4.69-0.73c0,0.96,0,1.92,0,2.88
		C55.57,68.41,55.52,69.09,56.43,69.2z"/>
	<path class="st130" d="M48.14,86.71c2.21,0.85,4.43,0.68,6.64,0.04c-0.73,1.15-0.28,2.31,0.01,3.46c-2.03,0.6-4.11,0.83-6.22,0.84
		c-1.27,0.06-2.58,0.52-3.8-0.26c-0.57-1.77-0.36-3.57-0.2-5.36c0.06-0.61,0.23-1.65,1.29-0.69l-0.02-0.02
		C46.34,85.69,47.11,86.34,48.14,86.71z"/>
	<path class="st129" d="M55.58,113.99c-0.92-0.24-1.83-0.48-2.75-0.72c-2.2-0.26-4.39-0.76-6.63-0.51c-1.03,0.11-2.06,0.21-3.1,0.25
		c-1.34,0.05-1.72-0.61-1.66-1.78c0.06-1.25,0.79-1.05,1.73-1.02c2.05,0.05,4.12,0.34,6.16-0.18c2.16-0.56,4.25-1.33,6.23-2.38
		C54.54,109.77,54.2,111.88,55.58,113.99z"/>
	<path class="st129" d="M56.39,59.44c-2.79,0.89-5.58,1.75-8.01-1.08c2.52-1.34,5.04-2.69,7.57-4.04
		C54.68,56.45,54.85,58.38,56.39,59.44z"/>
	<path class="st130" d="M55.1,86.67c0.54-0.29,1.07-0.57,1.61-0.86C56.49,86.69,55.83,86.74,55.1,86.67z"/>
	<path class="st131" d="M66.5,163.46c-0.13,0-0.26,0-0.39,0c0-40.67,0-81.33,0-122c0-0.9-0.14-1.82,0.37-2.66
		c1.05,0.81,0.79,1.98,0.79,3.05c0.01,31.9,0.01,63.8,0.01,95.7c0,8.62,0,17.25,0,25.87C67.02,163.44,66.76,163.45,66.5,163.46z"/>
	<path class="st132" d="M46.98,40.01c-0.76,1.33-0.23,2.78-0.33,4.16c-0.17,2.44-0.06,4.91-0.04,7.37c0.01,0.66-0.27,1.51,0.8,1.68
		c-1.01,0.83-2.32,1.03-3.44,1.63c-0.99,0.53-1.54-0.14-2.08-0.79c-0.94-4.69-1.05-9.37,0.03-14.05C43.61,40,45.29,40,46.98,40.01z"
		/>
	<path class="st133" d="M41.92,39.99c-0.01,4.68-0.02,9.37-0.03,14.05c-1.09-0.43-1.86-1.28-2.7-2.03
		c-0.43-0.68-0.61-1.42-0.61-2.22c0-2.47-0.03-4.93,0.01-7.4c0.02-0.93,0.18-1.81,0.98-2.43C40.36,39.98,41.14,39.98,41.92,39.99z"
		/>
	<path class="st131" d="M39.58,39.97c-0.82,3.29-0.21,6.63-0.39,9.94c-0.04,0.7,0,1.41,0,2.11c-1.15-0.75-2.26-1.55-3.17-2.61
		c-1.06-2.74-0.52-5.56-0.38-8.36c0.04-0.7,0.69-0.85,1.2-1.1C37.76,39.96,38.67,39.96,39.58,39.97z"/>
	<path class="st134" d="M36.85,39.95c-0.66,0.52-0.81,1.19-0.8,2.01c0.03,2.48-0.01,4.97-0.03,7.45c-0.77-0.58-1.54-1.16-2.31-1.75
		c-0.77-2.24-0.22-4.55-0.35-6.83c-0.04-0.65,0.4-0.88,0.99-0.88C35.18,39.95,36.02,39.95,36.85,39.95z"/>
	<path class="st135" d="M36.05,55.92c1.99,1.44,3.98,2.89,6.43,4.66c-3.17,0.09-5.77-0.35-8.36-0.92c0-0.64,0.05-1.28,0-1.91
		C33.98,56.3,34.68,55.77,36.05,55.92z"/>
	<path class="st136" d="M41.93,158.33c1.81,0,3.63,0,5.44,0c-0.84,0.7-0.79,1.65-0.78,2.62c0.03,1.6,0.01,3.2,0.02,4.79
		c-1.56-0.01-3.12-0.01-4.69-0.02C40.94,163.26,40.93,160.8,41.93,158.33z"/>
	<path class="st137" d="M41.93,158.33c0,2.47,0,4.93-0.01,7.4c-1.59,0.32-3.1-0.55-4.68-0.35c-1.12-2.18-0.63-4.46-0.4-6.72
		c0.06-0.61,0.51-1.04,1.25-0.7C39.38,158.01,40.68,157.92,41.93,158.33z"/>
	<path class="st138" d="M38.1,157.97c-1.05,0.15-0.85,0.96-0.85,1.64c-0.01,1.93,0,3.85,0,5.78c-3.07-0.02-3.13-0.08-3.13-3.12
		c0-1.16,0.04-2.31-0.01-3.47c-0.04-0.97,0.49-1.22,1.3-1.24C36.32,157.6,37.25,157.49,38.1,157.97z"/>
	<path class="st89" d="M40.36,32.16c-0.39-0.01-0.77-0.01-1.16-0.02c-0.01-0.12-0.02-0.25-0.03-0.37c0.26-0.01,0.53-0.01,0.79-0.02
		c0.5-0.41,0.59-0.95,0.59-1.56c0-6.07,0-12.14,0-18.2c0-0.53-0.18-1.01-0.31-1.51c0.53-0.84,1.28-0.28,1.94-0.31
		c0.52,0.27,1.21,0.24,1.58,0.82c0.3,0.6,0.28,1.25,0.28,1.89c0,5.55,0.01,11.09,0,16.64c0,1.11,0.02,2.23-1.16,2.87
		C42.02,32.71,41.15,32.87,40.36,32.16z"/>
	<path class="st69" d="M40.36,10.37c0.72,0.5,0.8,1.22,0.8,2.04c-0.03,5.89-0.01,11.77-0.02,17.66c0,0.83,0.19,1.8-1.17,1.69
		c0-7.13,0-14.27,0-21.4C40.1,10.25,40.23,10.25,40.36,10.37z"/>
	<path class="st126" d="M40.36,10.37c-0.13-0.01-0.26-0.01-0.39-0.02c-0.39-0.12-0.79-0.24-1.18-0.37c-0.19-0.4-0.27-0.8,0.02-1.19
		c0.65,0.12,1.29,0.25,1.94,0.37c0.55,0.88,1.67,0.55,2.37,1.1c-0.25,0.31-0.55,0.27-0.86,0.12C41.63,10.38,40.99,10.37,40.36,10.37
		z"/>
	<path class="st139" d="M51.28,31.76c0.39,0,0.78,0,1.17,0c0.52-0.39,1.04-0.27,1.56,0.01c-1.53,0.78-1.44,2.79-2.81,3.7
		c0.15,0.19,0.31,0.39,0.46,0.58c-1.7-0.11-3.46,0.35-4.98-0.45c0.67-1.21,1.19-2.52,2.25-3.44c0.06-0.07,0.13-0.14,0.19-0.21
		C49.83,31.67,50.52,31.24,51.28,31.76z"/>
	<path class="st140" d="M54.02,31.77c-0.52,0-1.04,0-1.56-0.01c0-6.51-0.01-13.03,0.02-19.54c0-0.68-0.42-1.64,0.76-1.89
		c0,6.39-0.01,12.77,0.02,19.16c0,0.68-0.43,1.64,0.76,1.88c0.39,0.01,0.79,0.01,1.18,0.02C54.9,31.82,54.45,31.75,54.02,31.77z"/>
	<path class="st141" d="M40.36,32.16c0.78-0.01,1.56-0.02,2.34-0.03c0.5-0.22,1.02-0.34,1.55-0.44c0.46,0,0.88,0.09,1.18,0.47
		c-0.18,0.3-0.47,0.37-0.79,0.38c-2.1,0.35-2.97,2.2-4.29,3.5c-0.63-0.06-1.27-0.06-1.88-0.19c-0.5-0.11-0.88-0.59-0.39-0.95
		C39.1,34.16,39.09,32.64,40.36,32.16z"/>
	<path class="st142" d="M40.36,36.05c0.91-1.8,1.48-4.02,4.29-3.5c-0.35,1.34-1.89,2.01-1.95,3.5
		C41.92,36.05,41.14,36.05,40.36,36.05z"/>
	<path class="st143" d="M47.77,32.15c-0.52,0-1.04,0-1.56,0c-0.4-1.59-0.17-3.21-0.18-4.81c-0.04-4.71-0.02-9.42-0.01-14.13
		c0-0.83-0.11-1.69,0.44-2.43c0.6-0.36,1.21-0.33,1.82-0.03c0.44,0.54,0.48,1.19,0.49,1.83c0.03,5.8,0.05,11.6-0.01,17.4
		C48.75,30.83,48.64,31.67,47.77,32.15z"/>
	<path class="st119" d="M47.77,32.15c0.44-0.7,0.39-1.47,0.39-2.25c-0.01-6.38-0.01-12.77-0.01-19.15c0.46-0.33,0.96-0.21,1.45-0.11
		c0.78,0.61,0.71,1.49,0.72,2.32c0.03,5.51,0.03,11.03,0,16.54c0,1.11,0.01,2.26-1.39,2.66c0,0,0,0,0,0
		C48.55,32.15,48.16,32.15,47.77,32.15z"/>
	<path class="st144" d="M46.59,10.76c0,6.38,0,12.76,0.01,19.14c0,0.77,0.05,1.55-0.39,2.25c-0.26,0.01-0.52,0.01-0.77,0.02
		c-0.39-0.01-0.79-0.02-1.18-0.02c-0.1-0.39,0.1-0.68,0.32-0.96c0.44-0.78,0.3-1.64,0.3-2.46c0.01-5.15,0-10.31,0.01-15.46
		c0-0.83-0.12-1.69,0.36-2.45C45.69,10.43,46.14,10.44,46.59,10.76z"/>
	<path class="st68" d="M47.4,8.72c-0.45,0.02-1.06,0.1-1.1-0.47c-0.09-1.33-0.09-2.68-0.01-4.01c0.03-0.56,0.64-0.5,1.09-0.52
		C47.39,5.39,47.4,7.05,47.4,8.72z"/>
	<path class="st140" d="M48.94,32.15c0.46-0.46,0.8-0.91,0.8-1.65c-0.04-6.25-0.02-12.5-0.02-18.75c0-0.4-0.04-0.77-0.39-1.04
		c-0.13-0.08-0.17-0.15-0.12-0.22c0.05-0.07,0.09-0.1,0.14-0.1c0.64-0.02,1.29-0.04,1.93-0.06c0,7.14,0,14.28,0,21.43
		C50.5,31.89,49.77,32.29,48.94,32.15z"/>
	<path class="st83" d="M55.58,9.95c0,7.01,0,14.02,0,21.04c-0.96-0.13-0.78-0.88-0.78-1.5c-0.01-6.01-0.01-12.03,0-18.04
		C54.8,10.83,54.61,10.08,55.58,9.95z"/>
	<path class="st145" d="M49.35,10.4c-0.01,0.11-0.02,0.21-0.02,0.32c-0.39,0.01-0.78,0.01-1.17,0.02c-0.52,0.01-1.04,0.01-1.56,0.02
		c-0.39,0-0.78,0-1.17,0c-0.24,0.19-0.51,0.33-0.82,0.37c-0.43,0.04-0.8-0.11-1.12-0.39c-0.42-0.05-0.88,0.01-1.21-0.35
		c0.29-0.04,0.57-0.08,0.86-0.12c0.77,0.01,1.55,0.01,2.32,0.02C46.75,10.33,48.05,10.36,49.35,10.4z"/>
	<path class="st146" d="M393.75,143.34c-0.94,0.05-1.65,0.14-1.67-1.08c-0.02-1.28,0.77-1.08,1.51-1.05
		c0.78,0.03,1.86-0.26,1.94,0.96C395.62,143.59,394.39,143.2,393.75,143.34z"/>
	<path class="st58" d="M27.09,134.61c0-12.74,0-25.48,0.02-38.22c0-0.8-0.33-1.7,0.47-2.36c1.07,0.09,2.08,0.35,3.06,0.78
		c0.25,0.55,0.24,1.13,0.24,1.72c-0.07,12.66-0.01,25.31-0.04,37.97c0,1.08,0.22,2.23-0.6,3.16
		C29.02,136.81,28.02,135.74,27.09,134.61z"/>
	<path class="st147" d="M34.15,117.19c-0.43,1.15-0.86,2.3-1.3,3.44c-0.18,0.62-0.16,1.25-0.01,1.87c0.42,1.31,0.84,2.63,1.26,3.94
		c-0.34,3.75-0.07,7.51-0.17,11.26c-0.02,0.95,0.17,1.97-0.6,2.77c-0.7-0.63-1.39-1.25-2.09-1.88c-0.24-5.51-0.08-11.03-0.1-16.54
		c-0.03-7.79-0.01-15.58-0.01-23.37c0-0.78-0.06-1.57,0.12-2.33c0.16-0.68,0.28-1.51,1.36-1.11c0.98,0.17,1.96,0.34,3.2,0.55
		c-1.29,1.36-2.74,2.37-2.96,4.19c-0.16,0.63-0.19,1.26,0.02,1.88c0.57,2,1.74,3.63,3.16,5.1c-0.89,0.39-1.27-0.09-1.41-0.53
		C34.51,109.8,35.23,113.53,34.15,117.19z"/>
	<path class="st148" d="M32.62,95.25c-1.3,0.27-0.83,1.31-0.83,2.05c-0.03,12.98-0.01,25.97-0.03,38.95c0,0.79,0.35,1.72-0.51,2.34
		c-0.34-0.31-0.68-0.63-1.02-0.94c-0.01-13.6-0.01-27.19-0.02-40.79c0-0.73,0.06-1.42,0.43-2.06
		C31.32,94.86,32.03,94.79,32.62,95.25z"/>
	<path class="st149" d="M36.21,129.11c1.42,0.91,2.84,1.82,4.25,2.74c-0.74,1.06-0.74,2.27-0.72,3.5c0.02,1.53,0.09,3.07-0.02,4.6
		c-0.09,1.36,0.25,2.36,1.55,2.93c-3.54,1.81-3.54,1.81-6.35-0.95c-0.53-3.85-0.23-7.72-0.15-11.58
		C34.8,129.59,35.03,128.7,36.21,129.11z"/>
	<path class="st150" d="M49.7,132.59c-0.78,0.9-1.82,0.39-2.73,0.46c-0.95,0.07-1.79,0.38-1.85,1.34c-0.13,1.93-0.05,3.88-0.03,5.82
		c0,0.48,0.41,0.6,0.81,0.68c-1.08,0.74-2.27,1.22-3.53,1.56c-1.08-0.05-0.95-0.95-0.98-1.58c-0.11-2.2-0.09-4.41-0.02-6.61
		c0.03-1.11,0.39-1.93,1.76-1.6C45.32,132.81,47.51,132.8,49.7,132.59z"/>
	<path class="st133" d="M43.12,132.66c-0.36,0.35-1.23-0.04-1.21,0.9c0.06,2.81,0.07,5.63,0.12,8.45c0,0.15,0.22,0.29,0.34,0.44
		c-0.28,0.36-0.68,0.41-1.09,0.42c-1.88,0.54-2.21-0.36-2.12-2.03c0.13-2.51,0.07-5.03,0.02-7.55c-0.02-0.96,0.28-1.48,1.29-1.45
		C41.35,132.12,42.23,132.39,43.12,132.66z"/>
	<path class="st151" d="M36.21,129.11c-1.17,0.16-0.92,1.07-0.92,1.8c-0.02,2.98-0.01,5.96-0.01,8.94c0,0.71,0.07,1.43-0.36,2.07
		c-0.67-0.33-1.17-0.84-1.59-1.45c0-4.11-0.01-8.23,0.01-12.34c0-0.64-0.32-1.5,0.76-1.69C34.81,127.33,35.51,128.22,36.21,129.11z"
		/>
	<path class="st152" d="M27.09,150.12c0-1.86,0.09-3.72-0.03-5.57c-0.07-1.04,0.29-1.4,1.23-1.4c0.88,0.8,1.77,1.6,2.65,2.4
		c-0.07,1.2-0.23,2.39-0.23,3.59c0,0.69-0.04,1.42-0.86,1.73C28.93,150.63,28.01,150.37,27.09,150.12z"/>
	<path class="st153" d="M29.85,150.88c0.65-1.05,0.28-2.22,0.36-3.34c0.05-0.74-0.14-1.55,0.74-1.99c1.42,0.79,2.26,2.23,3.54,3.17
		c0.39,2.49,0.07,2.92-2.02,2.68C31.55,151.47,30.71,151.13,29.85,150.88z"/>
	<path class="st154" d="M32.47,151.41c2.35,0.37,1.27-1.85,2.02-2.68c1.68,0.94,2.99,2.32,4.44,3.63
		C36.71,152.33,34.56,152.08,32.47,151.41z"/>
	<path class="st63" d="M27.09,88.47c0-7.55,0-15.11,0-22.66c0-0.83-0.11-1.69,0.38-2.45c1.51,0.19,2.97,0.56,4.39,1.09
		c-0.85,1.13-1.07,2.41-1.06,3.82c0.04,6.27,0.02,12.53,0.02,18.8c0,0.77,0.15,1.55-0.24,2.28C29.42,89.06,28.25,88.76,27.09,88.47z
		"/>
	<path class="st55" d="M30.58,89.35c-0.42-0.63-0.37-1.35-0.37-2.06c0-6.85,0.03-13.7-0.02-20.54c-0.01-1.28,0.24-2.16,1.67-2.29
		c0.65,0.03,1.32-0.05,1.88,0.39c0.34,2.74,0.24,5.47-0.08,8.2c-1.14,3.1-0.97,6.18,0.12,9.25c0.16,2.6,0.3,5.2-0.09,7.79
		C32.66,89.84,31.62,89.59,30.58,89.35z"/>
	<path class="st129" d="M51.34,96.81c1.63,0.04,2.98,0.66,3.48,2.28c0.53,1.73-0.45,2.99-1.77,3.98c-0.83,0.62-1.69,1.22-2.8,1.22
		c-4.24,0.52-4.28,0.48-4.29-3.67c0-4.03,0-4.03,4.05-3.97C50.46,96.65,50.92,96.57,51.34,96.81z"/>
	<path class="st155" d="M51.34,96.81c-0.19,0.01-0.39-0.01-0.58,0.02c-1.34,0.24-3.48-0.75-3.9,0.52c-0.62,1.91-0.21,4.17-0.17,6.29
		c0.01,0.59,0.6,0.57,1.05,0.58c0.84,0.03,1.67,0.04,2.51,0.05c-2.65,0.92-5.3,1.03-7.96,0.07c-1.37-1.77-1.36-5.86,0.02-7.45
		C45.31,96.36,48.32,96.14,51.34,96.81z"/>
	<path class="st156" d="M45.05,90.96c1.18,0.03,2.35,0.05,3.53,0.08c-4.22,0.7-8.38,0.24-12.54-0.54c-1.79-1.05-1.95-4.63-0.27-5.81
		c1.07,0.58,2.14,1.17,3.22,1.74c0.61,0.32,1.22,0.45,1.75-0.16c0.36,0.48,0.03,0.79-0.24,1.16c-1.27,1.73-0.91,2.53,1.23,2.91
		C42.83,90.55,44.05,90.17,45.05,90.96z"/>
	<path class="st157" d="M39.19,113.97c-0.89,0.4-1.79,0.8-2.68,1.2c-1.52-1.19-1.56-6.54-0.05-7.83c1.18,0.65,2.36,1.29,3.54,1.94
		C39.53,110.81,40.16,112.53,39.19,113.97z"/>
	<path class="st158" d="M42.3,96.89c-0.65,2.48-0.56,4.97-0.02,7.45c-0.43-0.13-0.88-0.2-1.27-0.4c-1.94-0.96-2.99-2.58-2.62-4.26
		C38.84,97.66,40.52,97.17,42.3,96.89z"/>
	<path class="st159" d="M39.19,113.97c0-1.08,0-2.16,0-3.24c0-0.63-0.12-1.33,0.81-1.45c3.06,0.9,6.18,0.94,9.33,0.75
		c-2.04,0.92-4.18,0.25-6.28,0.4c-0.58,0.04-1.2-0.26-1.13,0.73c0.05,0.75-0.18,1.68,1.06,1.62c0.71-0.03,1.42-0.1,2.11-0.21
		c2.64-0.42,5.2,0,7.74,0.69C48.25,112.87,43.69,112.82,39.19,113.97z"/>
	<path class="st160" d="M36.46,107.35c-0.62,2.61-0.71,5.22,0.05,7.83c-0.79,0.67-1.57,1.34-2.36,2.01c0-3.67,0-7.33,0-11.02
		c0.84-0.14,1.11,0.93,1.88,0.8C36.18,107.09,36.32,107.22,36.46,107.35z"/>
	<path class="st161" d="M35.77,84.7c-0.66,1.97-1.06,3.93,0.27,5.81c-0.78-0.14-1.56-0.28-2.34-0.42c-0.55-2.6-0.66-5.2,0.09-7.79
		C34.45,83.1,35.11,83.9,35.77,84.7z"/>
	<path class="st148" d="M32.87,101.87c-0.47-0.62-0.46-1.25-0.02-1.88C32.86,100.61,32.87,101.24,32.87,101.87z"/>
	<path class="st56" d="M50.88,65.61c-1.22,0.85-2.7,0.61-4.01,0.72c-1.58,0.14-1.99,0.67-1.84,2.08c0.07,0.63,0.01,1.27,0.02,1.91
		c-1.59,0.43-3.18,0.12-4.78,0.02c-1.46-0.09-1.62-1.05-1.59-2.15c0.03-1.2,0.43-2.22,1.82-2.29c0.62-0.03,1.28-0.15,1.9,0.11
		C45.22,65.88,48.05,65.75,50.88,65.61z"/>
	<path class="st162" d="M42.39,66.02c-0.5,0.01-0.96,0.22-1.51,0.15c-1.26-0.14-1.69,0.68-1.68,1.79c0.01,0.91-0.3,1.84,1.25,2.07
		c1.54,0.23,3.06,0.27,4.6,0.29c1.98,0.02,3.96,0.03,5.94,0.05c-2.61,0.66-5.26,0.28-7.9,0.34c-2.2,0.05-4.39,0.03-6.59,0.04
		c-1.05-0.08-0.97-0.95-0.98-1.59c-0.03-1.32-0.41-2.72,0.55-3.91C38.17,65.52,40.28,65.77,42.39,66.02z"/>
	<path class="st160" d="M36.07,65.26c0.22,1.82-0.48,3.72,0.44,5.49c-1.03,0.65-2.11,1.26-2.84,2.29c-0.54-2.74-0.58-5.47,0.08-8.2
		C34.54,64.86,35.33,64.9,36.07,65.26z"/>
	<path class="st163" d="M45.05,90.96c-1.21-0.03-2.48,0.15-3.62-0.15c-0.75-0.2-2.16,0.35-2.22-1.19c-0.05-1.16-0.37-2.49,1.37-2.82
		c0.08-0.02,0.11-0.34,0.16-0.53c0.26-1.28,0.52-2.55,0.78-3.83c-0.39-1.65-0.2-3.33-0.1-4.99c0.04-0.69,0.07-1.7,1.32-1.29
		c1.13,1.54,1.2,3.46,1.86,5.17c0.43,1.13,0.85,2.26,1.28,3.39c-0.99-0.33-0.83,0.37-0.83,0.92C45.04,87.42,45.04,89.19,45.05,90.96
		z"/>
	<path class="st130" d="M55.57,78.57c0,1.66-1.34,3.1-3.07,3.49c-1.68,0.39-2.93-0.13-3.63-1.75c-0.2-0.47-0.43-0.96-0.51-1.46
		c-0.16-1.02-1.38-2.55-0.51-2.89c1.73-0.67,3.79-0.87,5.68-0.04C54.76,76.47,55.48,77.4,55.57,78.57z"/>
	<path class="st164" d="M42.73,76.17c-1.08,0.17-0.75,1.02-0.81,1.68c-0.15,1.53,0.35,3.12-0.41,4.6c-1.65-0.67-3.18-1.4-3.19-3.58
		C38.3,76.04,39.98,74.98,42.73,76.17z"/>
	<path class="st163" d="M48.14,86.71c-1.33-0.02-2.06-0.72-2.29-2C46.62,85.37,47.38,86.04,48.14,86.71z"/>
	<path class="st130" d="M52.21,118.99c2.62,0.96,3.39,3.1,1.83,5.31c-0.87,1.23-1.96,2.25-3.54,2.53c-1.74,0.34-3.46,1.03-5.26,0.29
		c-0.81-2.51-0.42-5.07-0.27-7.61c0.05-0.87,0.73-1.08,1.53-1.06C48.42,118.48,50.35,118.34,52.21,118.99z"/>
	<path class="st155" d="M52.21,118.99c-1.74-0.03-3.45-0.45-5.21-0.38c-1.16,0.05-1.62,0.38-1.58,1.58
		c0.07,2.33,0.02,4.67,0.02,7.01c-3,0.27-4.14-0.65-4.09-3.46c0.03-1.58-0.44-3.25,0.57-4.72
		C45.34,117.97,48.77,117.79,52.21,118.99z"/>
	<path class="st164" d="M41.91,119.02c0,1.4,0.01,2.81,0.01,4.21c0,3.47,0,3.47,3.52,3.97c1.72,0.28,3.36-0.42,5.07-0.37
		c-3.46,1.32-6.8,1.17-9.93-0.9c-1.45-0.96-2.21-2.4-1.79-4.16C39.16,120.2,40.31,119.3,41.91,119.02z"/>
	<path class="st148" d="M32.84,122.51c-0.43-0.63-0.44-1.25,0.01-1.87C32.85,121.26,32.85,121.88,32.84,122.51z"/>
	<path class="st165" d="M43.48,10.74c0.39,0.01,0.78,0.01,1.17,0.02c0.43,0.48,0.39,1.08,0.39,1.66c0.01,5.89,0.01,11.79,0,17.68
		c0,0.58,0.03,1.18-0.38,1.66c-0.13,0.13-0.26,0.25-0.39,0.38c-0.52,0-1.04-0.01-1.56-0.01c0.83-0.54,0.79-1.38,0.79-2.23
		C43.47,23.51,43.48,17.13,43.48,10.74z"/>
	<path class="st86" d="M44.65,31.76c0-7,0-14.01,0-21.01c0.26,0,0.52,0,0.78,0c0,6.38,0.02,12.75-0.01,19.13
		C45.41,30.56,45.84,31.52,44.65,31.76z"/>
</g>
</svg>
